<svg xmlns="http://www.w3.org/2000/svg" xmlns:xlink="http://www.w3.org/1999/xlink" width="550" zoomAndPan="magnify" viewBox="0 0 412.5 225" height="300" preserveAspectRatio="xMidYMid meet" version="1.0"><defs><filter x="0%" y="0%" width="100%" height="100%" id="6b1022ea84"><feColorMatrix values="0 0 0 0 1 0 0 0 0 1 0 0 0 0 1 0 0 0 1 0" color-interpolation-filters="sRGB"/></filter><g/><clipPath id="d2ee9b1c5a"><path d="M 19 162 L 390 162 L 390 217.324219 L 19 217.324219 Z M 19 162 " clip-rule="nonzero"/></clipPath><clipPath id="ce362eed1b"><path d="M 172.121094 8 L 239.539062 8 L 239.539062 78.34375 L 172.121094 78.34375 Z M 172.121094 8 " clip-rule="nonzero"/></clipPath><clipPath id="e6a7380b52"><path d="M 117.6875 61.929688 L 294.472656 61.929688 L 294.472656 175.039062 L 117.6875 175.039062 Z M 117.6875 61.929688 " clip-rule="nonzero"/></clipPath><clipPath id="ab4b456b9e"><path d="M 0.6875 0.929688 L 177.472656 0.929688 L 177.472656 114.039062 L 0.6875 114.039062 Z M 0.6875 0.929688 " clip-rule="nonzero"/></clipPath><clipPath id="97948c0a8b"><path d="M 0.691406 0.929688 L 177.46875 0.929688 L 177.46875 114.039062 L 0.691406 114.039062 Z M 0.691406 0.929688 " clip-rule="nonzero"/></clipPath><linearGradient x1="61.890999" gradientTransform="matrix(0.749869, 0, 0, 0.74918, 42.670125, 42.88184)" y1="-56.000035" x2="61.890999" gradientUnits="userSpaceOnUse" y2="94.982237" id="c325d2fa32"><stop stop-opacity="1" stop-color="rgb(95.689392%, 72.158813%, 37.649536%)" offset="0"/><stop stop-opacity="1" stop-color="rgb(95.689392%, 72.158813%, 37.649536%)" offset="0.25"/><stop stop-opacity="1" stop-color="rgb(95.689392%, 72.158813%, 37.649536%)" offset="0.3125"/><stop stop-opacity="1" stop-color="rgb(95.689392%, 72.158813%, 37.649536%)" offset="0.328125"/><stop stop-opacity="1" stop-color="rgb(95.71991%, 72.036743%, 37.698364%)" offset="0.335938"/><stop stop-opacity="1" stop-color="rgb(95.799255%, 71.714783%, 37.82959%)" offset="0.339844"/><stop stop-opacity="1" stop-color="rgb(95.849609%, 71.516418%, 37.911987%)" offset="0.34375"/><stop stop-opacity="1" stop-color="rgb(95.898438%, 71.316528%, 37.992859%)" offset="0.347656"/><stop stop-opacity="1" stop-color="rgb(95.948792%, 71.116638%, 38.075256%)" offset="0.351563"/><stop stop-opacity="1" stop-color="rgb(95.999146%, 70.916748%, 38.156128%)" offset="0.355469"/><stop stop-opacity="1" stop-color="rgb(96.0495%, 70.718384%, 38.238525%)" offset="0.359375"/><stop stop-opacity="1" stop-color="rgb(96.098328%, 70.518494%, 38.319397%)" offset="0.363281"/><stop stop-opacity="1" stop-color="rgb(96.148682%, 70.318604%, 38.401794%)" offset="0.367188"/><stop stop-opacity="1" stop-color="rgb(96.19751%, 70.118713%, 38.482666%)" offset="0.371094"/><stop stop-opacity="1" stop-color="rgb(96.247864%, 69.918823%, 38.565063%)" offset="0.375"/><stop stop-opacity="1" stop-color="rgb(96.298218%, 69.718933%, 38.645935%)" offset="0.378906"/><stop stop-opacity="1" stop-color="rgb(96.348572%, 69.520569%, 38.728333%)" offset="0.382812"/><stop stop-opacity="1" stop-color="rgb(96.3974%, 69.320679%, 38.809204%)" offset="0.386719"/><stop stop-opacity="1" stop-color="rgb(96.447754%, 69.120789%, 38.891602%)" offset="0.390625"/><stop stop-opacity="1" stop-color="rgb(96.496582%, 68.920898%, 38.972473%)" offset="0.394531"/><stop stop-opacity="1" stop-color="rgb(96.546936%, 68.722534%, 39.054871%)" offset="0.398438"/><stop stop-opacity="1" stop-color="rgb(96.59729%, 68.522644%, 39.135742%)" offset="0.402344"/><stop stop-opacity="1" stop-color="rgb(96.647644%, 68.322754%, 39.21814%)" offset="0.40625"/><stop stop-opacity="1" stop-color="rgb(96.696472%, 68.122864%, 39.299011%)" offset="0.410156"/><stop stop-opacity="1" stop-color="rgb(96.746826%, 67.922974%, 39.381409%)" offset="0.414062"/><stop stop-opacity="1" stop-color="rgb(96.795654%, 67.723083%, 39.46228%)" offset="0.417969"/><stop stop-opacity="1" stop-color="rgb(96.846008%, 67.524719%, 39.544678%)" offset="0.421875"/><stop stop-opacity="1" stop-color="rgb(96.896362%, 67.324829%, 39.625549%)" offset="0.425781"/><stop stop-opacity="1" stop-color="rgb(96.946716%, 67.124939%, 39.707947%)" offset="0.429688"/><stop stop-opacity="1" stop-color="rgb(96.995544%, 66.925049%, 39.788818%)" offset="0.433594"/><stop stop-opacity="1" stop-color="rgb(97.045898%, 66.725159%, 39.871216%)" offset="0.4375"/><stop stop-opacity="1" stop-color="rgb(97.094727%, 66.525269%, 39.952087%)" offset="0.441406"/><stop stop-opacity="1" stop-color="rgb(97.145081%, 66.326904%, 40.034485%)" offset="0.445313"/><stop stop-opacity="1" stop-color="rgb(97.195435%, 66.127014%, 40.115356%)" offset="0.449219"/><stop stop-opacity="1" stop-color="rgb(97.245789%, 65.927124%, 40.197754%)" offset="0.453125"/><stop stop-opacity="1" stop-color="rgb(97.294617%, 65.727234%, 40.278625%)" offset="0.457031"/><stop stop-opacity="1" stop-color="rgb(97.344971%, 65.52887%, 40.361023%)" offset="0.460938"/><stop stop-opacity="1" stop-color="rgb(97.393799%, 65.328979%, 40.441895%)" offset="0.464844"/><stop stop-opacity="1" stop-color="rgb(97.444153%, 65.129089%, 40.524292%)" offset="0.46875"/><stop stop-opacity="1" stop-color="rgb(97.494507%, 64.929199%, 40.605164%)" offset="0.472656"/><stop stop-opacity="1" stop-color="rgb(97.544861%, 64.729309%, 40.687561%)" offset="0.476562"/><stop stop-opacity="1" stop-color="rgb(97.593689%, 64.529419%, 40.768433%)" offset="0.480469"/><stop stop-opacity="1" stop-color="rgb(97.644043%, 64.331055%, 40.85083%)" offset="0.484375"/><stop stop-opacity="1" stop-color="rgb(97.692871%, 64.131165%, 40.931702%)" offset="0.488281"/><stop stop-opacity="1" stop-color="rgb(97.743225%, 63.931274%, 41.014099%)" offset="0.492188"/><stop stop-opacity="1" stop-color="rgb(97.793579%, 63.731384%, 41.094971%)" offset="0.496094"/><stop stop-opacity="1" stop-color="rgb(97.843933%, 63.531494%, 41.177368%)" offset="0.5"/><stop stop-opacity="1" stop-color="rgb(97.892761%, 63.331604%, 41.25824%)" offset="0.503906"/><stop stop-opacity="1" stop-color="rgb(97.943115%, 63.13324%, 41.340637%)" offset="0.507812"/><stop stop-opacity="1" stop-color="rgb(97.991943%, 62.93335%, 41.421509%)" offset="0.511719"/><stop stop-opacity="1" stop-color="rgb(98.042297%, 62.733459%, 41.503906%)" offset="0.515625"/><stop stop-opacity="1" stop-color="rgb(98.092651%, 62.533569%, 41.584778%)" offset="0.519531"/><stop stop-opacity="1" stop-color="rgb(98.143005%, 62.335205%, 41.667175%)" offset="0.523438"/><stop stop-opacity="1" stop-color="rgb(98.191833%, 62.135315%, 41.748047%)" offset="0.527344"/><stop stop-opacity="1" stop-color="rgb(98.242188%, 61.935425%, 41.830444%)" offset="0.53125"/><stop stop-opacity="1" stop-color="rgb(98.291016%, 61.735535%, 41.911316%)" offset="0.535156"/><stop stop-opacity="1" stop-color="rgb(98.34137%, 61.535645%, 41.993713%)" offset="0.539062"/><stop stop-opacity="1" stop-color="rgb(98.391724%, 61.335754%, 42.074585%)" offset="0.542969"/><stop stop-opacity="1" stop-color="rgb(98.442078%, 61.13739%, 42.156982%)" offset="0.546875"/><stop stop-opacity="1" stop-color="rgb(98.490906%, 60.9375%, 42.237854%)" offset="0.550781"/><stop stop-opacity="1" stop-color="rgb(98.54126%, 60.73761%, 42.320251%)" offset="0.554688"/><stop stop-opacity="1" stop-color="rgb(98.590088%, 60.53772%, 42.402649%)" offset="0.558594"/><stop stop-opacity="1" stop-color="rgb(98.640442%, 60.339355%, 42.485046%)" offset="0.5625"/><stop stop-opacity="1" stop-color="rgb(98.690796%, 60.139465%, 42.565918%)" offset="0.566406"/><stop stop-opacity="1" stop-color="rgb(98.74115%, 59.939575%, 42.648315%)" offset="0.570313"/><stop stop-opacity="1" stop-color="rgb(98.789978%, 59.739685%, 42.729187%)" offset="0.574219"/><stop stop-opacity="1" stop-color="rgb(98.840332%, 59.539795%, 42.811584%)" offset="0.578125"/><stop stop-opacity="1" stop-color="rgb(98.88916%, 59.339905%, 42.892456%)" offset="0.582031"/><stop stop-opacity="1" stop-color="rgb(98.939514%, 59.141541%, 42.974854%)" offset="0.585938"/><stop stop-opacity="1" stop-color="rgb(98.989868%, 58.94165%, 43.055725%)" offset="0.589844"/><stop stop-opacity="1" stop-color="rgb(99.040222%, 58.74176%, 43.138123%)" offset="0.59375"/><stop stop-opacity="1" stop-color="rgb(99.08905%, 58.54187%, 43.218994%)" offset="0.597656"/><stop stop-opacity="1" stop-color="rgb(99.139404%, 58.34198%, 43.301392%)" offset="0.601562"/><stop stop-opacity="1" stop-color="rgb(99.188232%, 58.14209%, 43.382263%)" offset="0.605469"/><stop stop-opacity="1" stop-color="rgb(99.238586%, 57.943726%, 43.464661%)" offset="0.609375"/><stop stop-opacity="1" stop-color="rgb(99.28894%, 57.743835%, 43.545532%)" offset="0.613281"/><stop stop-opacity="1" stop-color="rgb(99.339294%, 57.543945%, 43.62793%)" offset="0.617188"/><stop stop-opacity="1" stop-color="rgb(99.388123%, 57.344055%, 43.708801%)" offset="0.621094"/><stop stop-opacity="1" stop-color="rgb(99.438477%, 57.145691%, 43.791199%)" offset="0.625"/><stop stop-opacity="1" stop-color="rgb(99.487305%, 56.945801%, 43.87207%)" offset="0.628906"/><stop stop-opacity="1" stop-color="rgb(99.537659%, 56.745911%, 43.954468%)" offset="0.632812"/><stop stop-opacity="1" stop-color="rgb(99.588013%, 56.546021%, 44.035339%)" offset="0.636719"/><stop stop-opacity="1" stop-color="rgb(99.638367%, 56.34613%, 44.117737%)" offset="0.640625"/><stop stop-opacity="1" stop-color="rgb(99.687195%, 56.14624%, 44.198608%)" offset="0.644531"/><stop stop-opacity="1" stop-color="rgb(99.737549%, 55.947876%, 44.281006%)" offset="0.648438"/><stop stop-opacity="1" stop-color="rgb(99.786377%, 55.747986%, 44.361877%)" offset="0.652344"/><stop stop-opacity="1" stop-color="rgb(99.836731%, 55.548096%, 44.444275%)" offset="0.65625"/><stop stop-opacity="1" stop-color="rgb(99.887085%, 55.348206%, 44.525146%)" offset="0.660156"/><stop stop-opacity="1" stop-color="rgb(99.937439%, 55.149841%, 44.607544%)" offset="0.664063"/><stop stop-opacity="1" stop-color="rgb(99.967957%, 55.024719%, 44.657898%)" offset="0.671875"/><stop stop-opacity="1" stop-color="rgb(100%, 54.899597%, 44.709778%)" offset="0.6875"/><stop stop-opacity="1" stop-color="rgb(100%, 54.899597%, 44.709778%)" offset="0.75"/><stop stop-opacity="1" stop-color="rgb(100%, 54.899597%, 44.709778%)" offset="1"/></linearGradient><clipPath id="1f0163ef9d"><rect x="0" width="178" y="0" height="115"/></clipPath><clipPath id="5b5179596d"><path d="M 0.6875 0.929688 L 177.472656 0.929688 L 177.472656 114.039062 L 0.6875 114.039062 Z M 0.6875 0.929688 " clip-rule="nonzero"/></clipPath><clipPath id="0f3a5b2a53"><rect x="0" width="178" y="0" height="115"/></clipPath><clipPath id="d76c28b85f"><rect x="0" width="178" y="0" height="115"/></clipPath><mask id="6acb5482a8"><g filter="url(#6b1022ea84)"><g transform="matrix(1, 0, 0, 1, 0, -0.000000000000007105)"><g clip-path="url(#d76c28b85f)"><g clip-path="url(#5b5179596d)"><g transform="matrix(1, 0, 0, 1, 0, -0.000000000000007105)"><g clip-path="url(#0f3a5b2a53)"><g fill="#000000" fill-opacity="1"><g transform="translate(42.647887, 61.604187)"><g><path d="M 0.484375 -0.9375 C 0.367188 -1.132812 0.316406 -1.40625 0.328125 -1.75 C 0.347656 -2.101562 0.410156 -2.5 0.515625 -2.9375 C 0.617188 -3.382812 0.757812 -3.859375 0.9375 -4.359375 C 1.125 -4.859375 1.332031 -5.359375 1.5625 -5.859375 C 1.800781 -6.359375 2.054688 -6.835938 2.328125 -7.296875 C 2.597656 -7.765625 2.875 -8.179688 3.15625 -8.546875 C 3.4375 -8.921875 3.710938 -9.226562 3.984375 -9.46875 C 4.265625 -9.707031 4.523438 -9.851562 4.765625 -9.90625 C 4.878906 -9.925781 4.992188 -9.921875 5.109375 -9.890625 C 5.234375 -9.867188 5.34375 -9.828125 5.4375 -9.765625 C 5.539062 -9.710938 5.628906 -9.640625 5.703125 -9.546875 C 5.773438 -9.460938 5.8125 -9.363281 5.8125 -9.25 C 5.8125 -9.15625 5.785156 -9.054688 5.734375 -8.953125 C 5.679688 -8.859375 5.640625 -8.769531 5.609375 -8.6875 C 5.554688 -8.550781 5.472656 -8.34375 5.359375 -8.0625 C 5.242188 -7.789062 5.109375 -7.476562 4.953125 -7.125 C 4.804688 -6.78125 4.648438 -6.40625 4.484375 -6 C 4.328125 -5.59375 4.171875 -5.191406 4.015625 -4.796875 C 3.859375 -4.398438 3.710938 -4.015625 3.578125 -3.640625 C 3.441406 -3.273438 3.328125 -2.953125 3.234375 -2.671875 C 3.148438 -2.390625 3.09375 -2.160156 3.0625 -1.984375 C 3.039062 -1.816406 3.0625 -1.734375 3.125 -1.734375 C 3.15625 -1.734375 3.210938 -1.769531 3.296875 -1.84375 C 3.390625 -1.925781 3.484375 -2.003906 3.578125 -2.078125 C 3.671875 -2.160156 3.75 -2.222656 3.8125 -2.265625 C 3.882812 -2.316406 3.921875 -2.316406 3.921875 -2.265625 C 3.910156 -2.160156 3.882812 -2.019531 3.84375 -1.84375 C 3.8125 -1.675781 3.757812 -1.5 3.6875 -1.3125 C 3.613281 -1.125 3.523438 -0.9375 3.421875 -0.75 C 3.328125 -0.5625 3.210938 -0.390625 3.078125 -0.234375 C 2.953125 -0.0859375 2.804688 0.03125 2.640625 0.125 C 2.484375 0.21875 2.3125 0.265625 2.125 0.265625 C 2.007812 0.265625 1.863281 0.21875 1.6875 0.125 C 1.519531 0.0390625 1.351562 -0.0625 1.1875 -0.1875 C 1.019531 -0.3125 0.867188 -0.441406 0.734375 -0.578125 C 0.597656 -0.710938 0.515625 -0.832031 0.484375 -0.9375 Z M 7.15625 -13.046875 C 7.125 -12.953125 7.054688 -12.804688 6.953125 -12.609375 C 6.859375 -12.410156 6.742188 -12.210938 6.609375 -12.015625 C 6.472656 -11.816406 6.320312 -11.640625 6.15625 -11.484375 C 5.988281 -11.335938 5.820312 -11.273438 5.65625 -11.296875 C 5.5625 -11.296875 5.472656 -11.328125 5.390625 -11.390625 C 5.304688 -11.453125 5.257812 -11.539062 5.25 -11.65625 C 5.25 -11.6875 5.242188 -11.75 5.234375 -11.84375 C 5.234375 -11.9375 5.222656 -12.035156 5.203125 -12.140625 C 5.191406 -12.253906 5.179688 -12.359375 5.171875 -12.453125 C 5.171875 -12.554688 5.171875 -12.625 5.171875 -12.65625 C 5.171875 -12.6875 5.160156 -12.726562 5.140625 -12.78125 C 5.128906 -12.84375 5.113281 -12.929688 5.09375 -13.046875 C 5.070312 -13.171875 5.117188 -13.296875 5.234375 -13.421875 C 5.359375 -13.546875 5.503906 -13.65625 5.671875 -13.75 C 5.835938 -13.84375 6.007812 -13.914062 6.1875 -13.96875 C 6.375 -14.019531 6.523438 -14.039062 6.640625 -14.03125 C 6.773438 -14.019531 6.882812 -13.984375 6.96875 -13.921875 C 7.050781 -13.859375 7.113281 -13.78125 7.15625 -13.6875 C 7.195312 -13.601562 7.21875 -13.503906 7.21875 -13.390625 C 7.21875 -13.273438 7.195312 -13.160156 7.15625 -13.046875 Z M 7.15625 -13.046875 "/></g></g></g><g fill="#000000" fill-opacity="1"><g transform="translate(49.249968, 61.604187)"><g><path d="M 0.84375 -1.828125 C 0.863281 -1.910156 0.898438 -2.078125 0.953125 -2.328125 C 1.003906 -2.578125 1.066406 -2.878906 1.140625 -3.234375 C 1.222656 -3.597656 1.3125 -4 1.40625 -4.4375 C 1.507812 -4.875 1.613281 -5.3125 1.71875 -5.75 C 1.832031 -6.195312 1.945312 -6.628906 2.0625 -7.046875 C 2.1875 -7.460938 2.300781 -7.832031 2.40625 -8.15625 C 2.507812 -8.488281 2.609375 -8.753906 2.703125 -8.953125 C 2.796875 -9.160156 2.878906 -9.269531 2.953125 -9.28125 C 3.160156 -9.3125 3.332031 -9.269531 3.46875 -9.15625 C 3.613281 -9.039062 3.6875 -8.894531 3.6875 -8.71875 C 3.6875 -8.1875 3.648438 -7.632812 3.578125 -7.0625 C 3.515625 -6.488281 3.4375 -5.914062 3.34375 -5.34375 C 3.25 -4.78125 3.148438 -4.226562 3.046875 -3.6875 C 2.941406 -3.15625 2.859375 -2.65625 2.796875 -2.1875 L 2.796875 -2.078125 C 3.003906 -2.222656 3.21875 -2.414062 3.4375 -2.65625 C 3.664062 -2.90625 3.890625 -3.175781 4.109375 -3.46875 C 4.328125 -3.769531 4.539062 -4.085938 4.75 -4.421875 C 4.957031 -4.753906 5.148438 -5.082031 5.328125 -5.40625 C 5.460938 -5.632812 5.582031 -5.863281 5.6875 -6.09375 C 5.800781 -6.320312 5.90625 -6.53125 6 -6.71875 C 6.101562 -6.90625 6.191406 -7.0625 6.265625 -7.1875 C 6.347656 -7.3125 6.414062 -7.382812 6.46875 -7.40625 C 6.695312 -7.476562 6.890625 -7.492188 7.046875 -7.453125 C 7.210938 -7.421875 7.34375 -7.347656 7.4375 -7.234375 C 7.53125 -7.117188 7.597656 -6.976562 7.640625 -6.8125 C 7.691406 -6.65625 7.726562 -6.488281 7.75 -6.3125 C 7.769531 -6.132812 7.78125 -5.960938 7.78125 -5.796875 C 7.78125 -5.628906 7.78125 -5.484375 7.78125 -5.359375 C 7.78125 -5.171875 7.757812 -4.96875 7.71875 -4.75 C 7.6875 -4.539062 7.648438 -4.320312 7.609375 -4.09375 C 7.566406 -3.875 7.523438 -3.644531 7.484375 -3.40625 C 7.453125 -3.164062 7.4375 -2.925781 7.4375 -2.6875 C 7.570312 -2.914062 7.722656 -3.191406 7.890625 -3.515625 C 8.066406 -3.835938 8.269531 -4.1875 8.5 -4.5625 C 8.738281 -4.9375 9.015625 -5.332031 9.328125 -5.75 C 9.640625 -6.175781 10 -6.601562 10.40625 -7.03125 C 10.59375 -7.226562 10.800781 -7.425781 11.03125 -7.625 C 11.269531 -7.832031 11.515625 -8.035156 11.765625 -8.234375 C 12.015625 -8.429688 12.257812 -8.617188 12.5 -8.796875 C 12.738281 -8.984375 12.957031 -9.144531 13.15625 -9.28125 C 13.363281 -9.414062 13.535156 -9.523438 13.671875 -9.609375 C 13.816406 -9.691406 13.914062 -9.734375 13.96875 -9.734375 C 14.09375 -9.753906 14.191406 -9.71875 14.265625 -9.625 C 14.347656 -9.53125 14.382812 -9.410156 14.375 -9.265625 C 14.144531 -9.054688 13.929688 -8.816406 13.734375 -8.546875 C 13.546875 -8.273438 13.359375 -7.984375 13.171875 -7.671875 C 12.992188 -7.359375 12.816406 -7.035156 12.640625 -6.703125 C 12.460938 -6.378906 12.28125 -6.0625 12.09375 -5.75 C 11.46875 -4.707031 10.847656 -3.6875 10.234375 -2.6875 C 9.617188 -1.695312 9.003906 -0.800781 8.390625 0 C 8.347656 0.0390625 8.296875 0.0820312 8.234375 0.125 C 8.179688 0.164062 8.113281 0.203125 8.03125 0.234375 C 7.957031 0.273438 7.878906 0.304688 7.796875 0.328125 C 7.722656 0.347656 7.65625 0.359375 7.59375 0.359375 C 7.332031 0.359375 7.085938 0.28125 6.859375 0.125 C 6.628906 -0.03125 6.421875 -0.222656 6.234375 -0.453125 C 6.046875 -0.691406 5.890625 -0.945312 5.765625 -1.21875 C 5.648438 -1.5 5.578125 -1.75 5.546875 -1.96875 C 5.296875 -1.726562 5.054688 -1.460938 4.828125 -1.171875 C 4.609375 -0.890625 4.375 -0.625 4.125 -0.375 C 3.882812 -0.132812 3.617188 0.0664062 3.328125 0.234375 C 3.035156 0.398438 2.691406 0.484375 2.296875 0.484375 C 2.015625 0.484375 1.78125 0.441406 1.59375 0.359375 C 1.40625 0.285156 1.253906 0.175781 1.140625 0.03125 C 1.035156 -0.101562 0.957031 -0.273438 0.90625 -0.484375 C 0.863281 -0.703125 0.84375 -0.945312 0.84375 -1.21875 Z M 0.84375 -1.828125 "/></g></g></g><g fill="#000000" fill-opacity="1"><g transform="translate(62.003483, 61.604187)"><g><path d="M 8.1875 1.703125 C 7.832031 1.398438 7.5625 1.09375 7.375 0.78125 C 7.1875 0.476562 7.054688 0.160156 6.984375 -0.171875 C 6.910156 -0.503906 6.878906 -0.859375 6.890625 -1.234375 C 6.910156 -1.609375 6.953125 -2.019531 7.015625 -2.46875 C 6.660156 -2.144531 6.328125 -1.832031 6.015625 -1.53125 C 5.710938 -1.226562 5.394531 -0.953125 5.0625 -0.703125 C 4.726562 -0.460938 4.359375 -0.269531 3.953125 -0.125 C 3.546875 0.0195312 3.0625 0.09375 2.5 0.09375 C 2.21875 0.09375 1.941406 0.046875 1.671875 -0.046875 C 1.398438 -0.140625 1.160156 -0.265625 0.953125 -0.421875 C 0.742188 -0.585938 0.570312 -0.78125 0.4375 -1 C 0.3125 -1.21875 0.25 -1.441406 0.25 -1.671875 C 0.25 -2.222656 0.351562 -2.78125 0.5625 -3.34375 C 0.769531 -3.90625 1.050781 -4.453125 1.40625 -4.984375 C 1.769531 -5.515625 2.1875 -6.023438 2.65625 -6.515625 C 3.125 -7.015625 3.613281 -7.46875 4.125 -7.875 C 4.644531 -8.28125 5.171875 -8.628906 5.703125 -8.921875 C 6.242188 -9.222656 6.753906 -9.453125 7.234375 -9.609375 C 7.722656 -9.773438 8.171875 -9.859375 8.578125 -9.859375 C 8.984375 -9.867188 9.316406 -9.773438 9.578125 -9.578125 C 9.617188 -9.640625 9.691406 -9.695312 9.796875 -9.75 C 9.910156 -9.800781 10.039062 -9.835938 10.1875 -9.859375 C 10.332031 -9.878906 10.476562 -9.875 10.625 -9.84375 C 10.769531 -9.820312 10.890625 -9.757812 10.984375 -9.65625 C 11.085938 -9.5625 11.148438 -9.421875 11.171875 -9.234375 C 11.203125 -9.046875 11.164062 -8.804688 11.0625 -8.515625 C 10.476562 -6.828125 9.9375 -5.144531 9.4375 -3.46875 C 8.9375 -1.800781 8.519531 -0.078125 8.1875 1.703125 Z M 8.859375 -8.5625 C 8.410156 -8.519531 7.941406 -8.378906 7.453125 -8.140625 C 6.972656 -7.910156 6.503906 -7.613281 6.046875 -7.25 C 5.597656 -6.882812 5.175781 -6.472656 4.78125 -6.015625 C 4.382812 -5.554688 4.039062 -5.085938 3.75 -4.609375 C 3.46875 -4.140625 3.253906 -3.671875 3.109375 -3.203125 C 2.960938 -2.742188 2.910156 -2.328125 2.953125 -1.953125 C 3.128906 -1.898438 3.375 -1.960938 3.6875 -2.140625 C 4 -2.328125 4.351562 -2.597656 4.75 -2.953125 C 5.15625 -3.304688 5.59375 -3.734375 6.0625 -4.234375 C 6.539062 -4.742188 7.039062 -5.296875 7.5625 -5.890625 C 7.882812 -6.210938 8.140625 -6.515625 8.328125 -6.796875 C 8.523438 -7.078125 8.671875 -7.332031 8.765625 -7.5625 C 8.859375 -7.800781 8.90625 -8.003906 8.90625 -8.171875 C 8.914062 -8.335938 8.898438 -8.46875 8.859375 -8.5625 Z M 8.859375 -8.5625 "/></g></g></g><g fill="#000000" fill-opacity="1"><g transform="translate(74.061228, 61.604187)"><g><path d="M 5.984375 -0.078125 C 5.953125 -0.0664062 5.925781 -0.0507812 5.90625 -0.03125 C 5.894531 -0.0078125 5.882812 0.00390625 5.875 0.015625 C 5.875 0.0351562 5.867188 0.0507812 5.859375 0.0625 C 5.859375 0.0703125 5.851562 0.0664062 5.84375 0.046875 C 5.820312 0.00390625 5.800781 -0.0390625 5.78125 -0.09375 C 5.757812 -0.15625 5.738281 -0.21875 5.71875 -0.28125 C 5.695312 -0.34375 5.679688 -0.394531 5.671875 -0.4375 C 5.660156 -0.488281 5.65625 -0.523438 5.65625 -0.546875 C 5.59375 -1.140625 5.601562 -1.726562 5.6875 -2.3125 C 5.769531 -2.894531 5.882812 -3.46875 6.03125 -4.03125 C 6.1875 -4.601562 6.363281 -5.160156 6.5625 -5.703125 C 6.769531 -6.253906 6.972656 -6.796875 7.171875 -7.328125 C 6.929688 -7.171875 6.675781 -6.972656 6.40625 -6.734375 C 6.144531 -6.492188 5.890625 -6.234375 5.640625 -5.953125 C 5.390625 -5.671875 5.148438 -5.382812 4.921875 -5.09375 C 4.703125 -4.8125 4.519531 -4.550781 4.375 -4.3125 L 2.328125 -0.46875 C 2.285156 -0.40625 2.210938 -0.359375 2.109375 -0.328125 C 2.015625 -0.296875 1.910156 -0.269531 1.796875 -0.25 C 1.679688 -0.238281 1.566406 -0.234375 1.453125 -0.234375 C 1.347656 -0.234375 1.273438 -0.234375 1.234375 -0.234375 C 1.128906 -0.234375 1.019531 -0.25 0.90625 -0.28125 C 0.800781 -0.3125 0.707031 -0.359375 0.625 -0.421875 C 0.550781 -0.484375 0.492188 -0.554688 0.453125 -0.640625 C 0.421875 -0.734375 0.414062 -0.835938 0.4375 -0.953125 C 0.476562 -1.234375 0.585938 -1.554688 0.765625 -1.921875 C 0.953125 -2.285156 1.160156 -2.691406 1.390625 -3.140625 C 1.617188 -3.585938 1.847656 -4.078125 2.078125 -4.609375 C 2.316406 -5.148438 2.507812 -5.726562 2.65625 -6.34375 C 2.65625 -6.40625 2.628906 -6.425781 2.578125 -6.40625 C 2.523438 -6.382812 2.457031 -6.34375 2.375 -6.28125 C 2.289062 -6.21875 2.207031 -6.132812 2.125 -6.03125 C 2.039062 -5.9375 1.96875 -5.84375 1.90625 -5.75 C 1.894531 -5.988281 1.914062 -6.253906 1.96875 -6.546875 C 2.03125 -6.847656 2.117188 -7.144531 2.234375 -7.4375 C 2.347656 -7.738281 2.476562 -8.023438 2.625 -8.296875 C 2.78125 -8.566406 2.9375 -8.796875 3.09375 -8.984375 C 3.257812 -9.179688 3.421875 -9.320312 3.578125 -9.40625 C 3.742188 -9.5 3.894531 -9.515625 4.03125 -9.453125 C 4.15625 -9.398438 4.242188 -9.304688 4.296875 -9.171875 C 4.347656 -9.035156 4.378906 -8.875 4.390625 -8.6875 C 4.398438 -8.507812 4.390625 -8.320312 4.359375 -8.125 C 4.335938 -7.925781 4.3125 -7.734375 4.28125 -7.546875 C 4.25 -7.359375 4.21875 -7.1875 4.1875 -7.03125 C 4.15625 -6.882812 4.140625 -6.773438 4.140625 -6.703125 C 4.359375 -6.929688 4.625 -7.207031 4.9375 -7.53125 C 5.25 -7.863281 5.582031 -8.179688 5.9375 -8.484375 C 6.289062 -8.785156 6.644531 -9.039062 7 -9.25 C 7.351562 -9.457031 7.675781 -9.554688 7.96875 -9.546875 C 8.1875 -9.546875 8.394531 -9.476562 8.59375 -9.34375 C 8.789062 -9.21875 8.957031 -9.054688 9.09375 -8.859375 C 9.226562 -8.660156 9.328125 -8.441406 9.390625 -8.203125 C 9.460938 -7.960938 9.476562 -7.726562 9.4375 -7.5 C 9.332031 -6.84375 9.175781 -6.195312 8.96875 -5.5625 C 8.757812 -4.9375 8.539062 -4.34375 8.3125 -3.78125 C 8.09375 -3.226562 7.882812 -2.71875 7.6875 -2.25 C 7.5 -1.789062 7.363281 -1.394531 7.28125 -1.0625 C 7.207031 -0.78125 7.148438 -0.519531 7.109375 -0.28125 C 7.066406 -0.0390625 7.03125 0.175781 7 0.375 C 6.976562 0.582031 6.957031 0.773438 6.9375 0.953125 C 6.914062 1.128906 6.894531 1.289062 6.875 1.4375 C 6.757812 1.5 6.660156 1.507812 6.578125 1.46875 C 6.492188 1.425781 6.421875 1.351562 6.359375 1.25 C 6.304688 1.15625 6.257812 1.039062 6.21875 0.90625 C 6.175781 0.769531 6.140625 0.632812 6.109375 0.5 C 6.085938 0.363281 6.066406 0.242188 6.046875 0.140625 C 6.023438 0.0351562 6.003906 -0.0351562 5.984375 -0.078125 Z M 5.984375 -0.078125 "/></g></g></g><g fill="#000000" fill-opacity="1"><g transform="translate(84.389133, 61.604187)"><g><path d="M 5.984375 -0.078125 C 5.953125 -0.0664062 5.925781 -0.0507812 5.90625 -0.03125 C 5.894531 -0.0078125 5.882812 0.00390625 5.875 0.015625 C 5.875 0.0351562 5.867188 0.0507812 5.859375 0.0625 C 5.859375 0.0703125 5.851562 0.0664062 5.84375 0.046875 C 5.820312 0.00390625 5.800781 -0.0390625 5.78125 -0.09375 C 5.757812 -0.15625 5.738281 -0.21875 5.71875 -0.28125 C 5.695312 -0.34375 5.679688 -0.394531 5.671875 -0.4375 C 5.660156 -0.488281 5.65625 -0.523438 5.65625 -0.546875 C 5.59375 -1.140625 5.601562 -1.726562 5.6875 -2.3125 C 5.769531 -2.894531 5.882812 -3.46875 6.03125 -4.03125 C 6.1875 -4.601562 6.363281 -5.160156 6.5625 -5.703125 C 6.769531 -6.253906 6.972656 -6.796875 7.171875 -7.328125 C 6.929688 -7.171875 6.675781 -6.972656 6.40625 -6.734375 C 6.144531 -6.492188 5.890625 -6.234375 5.640625 -5.953125 C 5.390625 -5.671875 5.148438 -5.382812 4.921875 -5.09375 C 4.703125 -4.8125 4.519531 -4.550781 4.375 -4.3125 L 2.328125 -0.46875 C 2.285156 -0.40625 2.210938 -0.359375 2.109375 -0.328125 C 2.015625 -0.296875 1.910156 -0.269531 1.796875 -0.25 C 1.679688 -0.238281 1.566406 -0.234375 1.453125 -0.234375 C 1.347656 -0.234375 1.273438 -0.234375 1.234375 -0.234375 C 1.128906 -0.234375 1.019531 -0.25 0.90625 -0.28125 C 0.800781 -0.3125 0.707031 -0.359375 0.625 -0.421875 C 0.550781 -0.484375 0.492188 -0.554688 0.453125 -0.640625 C 0.421875 -0.734375 0.414062 -0.835938 0.4375 -0.953125 C 0.476562 -1.234375 0.585938 -1.554688 0.765625 -1.921875 C 0.953125 -2.285156 1.160156 -2.691406 1.390625 -3.140625 C 1.617188 -3.585938 1.847656 -4.078125 2.078125 -4.609375 C 2.316406 -5.148438 2.507812 -5.726562 2.65625 -6.34375 C 2.65625 -6.40625 2.628906 -6.425781 2.578125 -6.40625 C 2.523438 -6.382812 2.457031 -6.34375 2.375 -6.28125 C 2.289062 -6.21875 2.207031 -6.132812 2.125 -6.03125 C 2.039062 -5.9375 1.96875 -5.84375 1.90625 -5.75 C 1.894531 -5.988281 1.914062 -6.253906 1.96875 -6.546875 C 2.03125 -6.847656 2.117188 -7.144531 2.234375 -7.4375 C 2.347656 -7.738281 2.476562 -8.023438 2.625 -8.296875 C 2.78125 -8.566406 2.9375 -8.796875 3.09375 -8.984375 C 3.257812 -9.179688 3.421875 -9.320312 3.578125 -9.40625 C 3.742188 -9.5 3.894531 -9.515625 4.03125 -9.453125 C 4.15625 -9.398438 4.242188 -9.304688 4.296875 -9.171875 C 4.347656 -9.035156 4.378906 -8.875 4.390625 -8.6875 C 4.398438 -8.507812 4.390625 -8.320312 4.359375 -8.125 C 4.335938 -7.925781 4.3125 -7.734375 4.28125 -7.546875 C 4.25 -7.359375 4.21875 -7.1875 4.1875 -7.03125 C 4.15625 -6.882812 4.140625 -6.773438 4.140625 -6.703125 C 4.359375 -6.929688 4.625 -7.207031 4.9375 -7.53125 C 5.25 -7.863281 5.582031 -8.179688 5.9375 -8.484375 C 6.289062 -8.785156 6.644531 -9.039062 7 -9.25 C 7.351562 -9.457031 7.675781 -9.554688 7.96875 -9.546875 C 8.1875 -9.546875 8.394531 -9.476562 8.59375 -9.34375 C 8.789062 -9.21875 8.957031 -9.054688 9.09375 -8.859375 C 9.226562 -8.660156 9.328125 -8.441406 9.390625 -8.203125 C 9.460938 -7.960938 9.476562 -7.726562 9.4375 -7.5 C 9.332031 -6.84375 9.175781 -6.195312 8.96875 -5.5625 C 8.757812 -4.9375 8.539062 -4.34375 8.3125 -3.78125 C 8.09375 -3.226562 7.882812 -2.71875 7.6875 -2.25 C 7.5 -1.789062 7.363281 -1.394531 7.28125 -1.0625 C 7.207031 -0.78125 7.148438 -0.519531 7.109375 -0.28125 C 7.066406 -0.0390625 7.03125 0.175781 7 0.375 C 6.976562 0.582031 6.957031 0.773438 6.9375 0.953125 C 6.914062 1.128906 6.894531 1.289062 6.875 1.4375 C 6.757812 1.5 6.660156 1.507812 6.578125 1.46875 C 6.492188 1.425781 6.421875 1.351562 6.359375 1.25 C 6.304688 1.15625 6.257812 1.039062 6.21875 0.90625 C 6.175781 0.769531 6.140625 0.632812 6.109375 0.5 C 6.085938 0.363281 6.066406 0.242188 6.046875 0.140625 C 6.023438 0.0351562 6.003906 -0.0351562 5.984375 -0.078125 Z M 5.984375 -0.078125 "/></g></g></g><g fill="#000000" fill-opacity="1"><g transform="translate(94.717037, 61.604187)"><g><path d="M 8.1875 1.703125 C 7.832031 1.398438 7.5625 1.09375 7.375 0.78125 C 7.1875 0.476562 7.054688 0.160156 6.984375 -0.171875 C 6.910156 -0.503906 6.878906 -0.859375 6.890625 -1.234375 C 6.910156 -1.609375 6.953125 -2.019531 7.015625 -2.46875 C 6.660156 -2.144531 6.328125 -1.832031 6.015625 -1.53125 C 5.710938 -1.226562 5.394531 -0.953125 5.0625 -0.703125 C 4.726562 -0.460938 4.359375 -0.269531 3.953125 -0.125 C 3.546875 0.0195312 3.0625 0.09375 2.5 0.09375 C 2.21875 0.09375 1.941406 0.046875 1.671875 -0.046875 C 1.398438 -0.140625 1.160156 -0.265625 0.953125 -0.421875 C 0.742188 -0.585938 0.570312 -0.78125 0.4375 -1 C 0.3125 -1.21875 0.25 -1.441406 0.25 -1.671875 C 0.25 -2.222656 0.351562 -2.78125 0.5625 -3.34375 C 0.769531 -3.90625 1.050781 -4.453125 1.40625 -4.984375 C 1.769531 -5.515625 2.1875 -6.023438 2.65625 -6.515625 C 3.125 -7.015625 3.613281 -7.46875 4.125 -7.875 C 4.644531 -8.28125 5.171875 -8.628906 5.703125 -8.921875 C 6.242188 -9.222656 6.753906 -9.453125 7.234375 -9.609375 C 7.722656 -9.773438 8.171875 -9.859375 8.578125 -9.859375 C 8.984375 -9.867188 9.316406 -9.773438 9.578125 -9.578125 C 9.617188 -9.640625 9.691406 -9.695312 9.796875 -9.75 C 9.910156 -9.800781 10.039062 -9.835938 10.1875 -9.859375 C 10.332031 -9.878906 10.476562 -9.875 10.625 -9.84375 C 10.769531 -9.820312 10.890625 -9.757812 10.984375 -9.65625 C 11.085938 -9.5625 11.148438 -9.421875 11.171875 -9.234375 C 11.203125 -9.046875 11.164062 -8.804688 11.0625 -8.515625 C 10.476562 -6.828125 9.9375 -5.144531 9.4375 -3.46875 C 8.9375 -1.800781 8.519531 -0.078125 8.1875 1.703125 Z M 8.859375 -8.5625 C 8.410156 -8.519531 7.941406 -8.378906 7.453125 -8.140625 C 6.972656 -7.910156 6.503906 -7.613281 6.046875 -7.25 C 5.597656 -6.882812 5.175781 -6.472656 4.78125 -6.015625 C 4.382812 -5.554688 4.039062 -5.085938 3.75 -4.609375 C 3.46875 -4.140625 3.253906 -3.671875 3.109375 -3.203125 C 2.960938 -2.742188 2.910156 -2.328125 2.953125 -1.953125 C 3.128906 -1.898438 3.375 -1.960938 3.6875 -2.140625 C 4 -2.328125 4.351562 -2.597656 4.75 -2.953125 C 5.15625 -3.304688 5.59375 -3.734375 6.0625 -4.234375 C 6.539062 -4.742188 7.039062 -5.296875 7.5625 -5.890625 C 7.882812 -6.210938 8.140625 -6.515625 8.328125 -6.796875 C 8.523438 -7.078125 8.671875 -7.332031 8.765625 -7.5625 C 8.859375 -7.800781 8.90625 -8.003906 8.90625 -8.171875 C 8.914062 -8.335938 8.898438 -8.46875 8.859375 -8.5625 Z M 8.859375 -8.5625 "/></g></g></g><g fill="#000000" fill-opacity="1"><g transform="translate(106.774782, 61.604187)"><g><path d="M 4.921875 -2.984375 C 4.710938 -3.023438 4.484375 -3.054688 4.234375 -3.078125 C 3.992188 -3.097656 3.75 -3.125 3.5 -3.15625 C 3.25 -3.195312 3.003906 -3.25 2.765625 -3.3125 C 2.535156 -3.375 2.328125 -3.460938 2.140625 -3.578125 C 1.960938 -3.703125 1.820312 -3.859375 1.71875 -4.046875 C 1.613281 -4.234375 1.5625 -4.472656 1.5625 -4.765625 C 1.5625 -5.015625 1.617188 -5.3125 1.734375 -5.65625 C 1.859375 -6 2.019531 -6.359375 2.21875 -6.734375 C 2.414062 -7.109375 2.640625 -7.476562 2.890625 -7.84375 C 3.148438 -8.207031 3.414062 -8.53125 3.6875 -8.8125 C 3.96875 -9.101562 4.25 -9.332031 4.53125 -9.5 C 4.8125 -9.664062 5.078125 -9.742188 5.328125 -9.734375 C 5.359375 -9.734375 5.441406 -9.734375 5.578125 -9.734375 C 5.710938 -9.734375 5.867188 -9.722656 6.046875 -9.703125 C 6.222656 -9.691406 6.410156 -9.671875 6.609375 -9.640625 C 6.816406 -9.609375 7.003906 -9.566406 7.171875 -9.515625 C 7.335938 -9.472656 7.476562 -9.410156 7.59375 -9.328125 C 7.707031 -9.253906 7.769531 -9.164062 7.78125 -9.0625 C 7.789062 -8.976562 7.757812 -8.863281 7.6875 -8.71875 C 7.625 -8.570312 7.535156 -8.421875 7.421875 -8.265625 C 7.316406 -8.109375 7.191406 -7.96875 7.046875 -7.84375 C 6.910156 -7.71875 6.773438 -7.632812 6.640625 -7.59375 C 6.671875 -7.726562 6.695312 -7.851562 6.71875 -7.96875 C 6.738281 -8.09375 6.710938 -8.203125 6.640625 -8.296875 L 6.53125 -8.296875 C 6.488281 -8.296875 6.40625 -8.242188 6.28125 -8.140625 C 6.164062 -8.035156 6.023438 -7.894531 5.859375 -7.71875 C 5.703125 -7.550781 5.53125 -7.363281 5.34375 -7.15625 C 5.15625 -6.945312 4.976562 -6.734375 4.8125 -6.515625 C 4.65625 -6.296875 4.515625 -6.082031 4.390625 -5.875 C 4.265625 -5.675781 4.175781 -5.503906 4.125 -5.359375 C 4.351562 -5.285156 4.59375 -5.226562 4.84375 -5.1875 C 5.09375 -5.144531 5.34375 -5.097656 5.59375 -5.046875 C 5.84375 -4.992188 6.082031 -4.9375 6.3125 -4.875 C 6.539062 -4.8125 6.742188 -4.722656 6.921875 -4.609375 C 7.097656 -4.492188 7.242188 -4.347656 7.359375 -4.171875 C 7.472656 -3.992188 7.535156 -3.773438 7.546875 -3.515625 C 7.554688 -3.265625 7.488281 -3 7.34375 -2.71875 C 7.195312 -2.4375 6.984375 -2.15625 6.703125 -1.875 C 6.421875 -1.601562 6.082031 -1.335938 5.6875 -1.078125 C 5.289062 -0.828125 4.847656 -0.597656 4.359375 -0.390625 C 3.867188 -0.179688 3.335938 -0.00390625 2.765625 0.140625 C 2.203125 0.285156 1.613281 0.382812 1 0.4375 C 0.769531 0.445312 0.539062 0.472656 0.3125 0.515625 C 0.09375 0.554688 -0.128906 0.601562 -0.359375 0.65625 C -0.585938 0.707031 -0.8125 0.75 -1.03125 0.78125 C -1.257812 0.820312 -1.492188 0.847656 -1.734375 0.859375 C -1.734375 0.765625 -1.664062 0.648438 -1.53125 0.515625 C -1.394531 0.378906 -1.207031 0.226562 -0.96875 0.0625 C -0.726562 -0.101562 -0.441406 -0.28125 -0.109375 -0.46875 C 0.210938 -0.65625 0.550781 -0.84375 0.90625 -1.03125 C 1.269531 -1.226562 1.640625 -1.421875 2.015625 -1.609375 C 2.398438 -1.796875 2.769531 -1.972656 3.125 -2.140625 C 3.488281 -2.304688 3.820312 -2.460938 4.125 -2.609375 C 4.4375 -2.765625 4.703125 -2.890625 4.921875 -2.984375 Z M 4.921875 -2.984375 "/></g></g></g><g fill="#000000" fill-opacity="1"><g transform="translate(115.127176, 61.604187)"><g><path d="M 0.46875 -1.953125 C 0.457031 -2.460938 0.5 -2.992188 0.59375 -3.546875 C 0.695312 -4.097656 0.832031 -4.644531 1 -5.1875 C 1.164062 -5.738281 1.359375 -6.269531 1.578125 -6.78125 C 1.804688 -7.289062 2.039062 -7.753906 2.28125 -8.171875 C 2.519531 -8.597656 2.757812 -8.960938 3 -9.265625 C 3.238281 -9.566406 3.460938 -9.785156 3.671875 -9.921875 C 3.804688 -10.003906 3.929688 -10.039062 4.046875 -10.03125 C 4.171875 -10.019531 4.28125 -9.984375 4.375 -9.921875 C 4.476562 -9.859375 4.554688 -9.773438 4.609375 -9.671875 C 4.671875 -9.578125 4.707031 -9.476562 4.71875 -9.375 C 4.738281 -9.132812 4.707031 -8.84375 4.625 -8.5 C 4.539062 -8.164062 4.425781 -7.796875 4.28125 -7.390625 C 4.144531 -6.992188 3.992188 -6.582031 3.828125 -6.15625 C 3.660156 -5.726562 3.503906 -5.304688 3.359375 -4.890625 C 3.222656 -4.472656 3.113281 -4.070312 3.03125 -3.6875 C 2.957031 -3.3125 2.929688 -2.976562 2.953125 -2.6875 C 3.054688 -2.664062 3.210938 -2.722656 3.421875 -2.859375 C 3.640625 -2.992188 3.890625 -3.175781 4.171875 -3.40625 C 4.460938 -3.632812 4.773438 -3.90625 5.109375 -4.21875 C 5.453125 -4.53125 5.796875 -4.867188 6.140625 -5.234375 C 6.234375 -5.359375 6.332031 -5.546875 6.4375 -5.796875 C 6.539062 -6.054688 6.648438 -6.34375 6.765625 -6.65625 C 6.878906 -6.976562 6.992188 -7.304688 7.109375 -7.640625 C 7.234375 -7.984375 7.359375 -8.296875 7.484375 -8.578125 C 7.609375 -8.859375 7.734375 -9.085938 7.859375 -9.265625 C 7.992188 -9.453125 8.128906 -9.546875 8.265625 -9.546875 C 8.398438 -9.546875 8.519531 -9.507812 8.625 -9.4375 C 8.726562 -9.375 8.8125 -9.289062 8.875 -9.1875 C 8.945312 -9.09375 8.992188 -8.984375 9.015625 -8.859375 C 9.046875 -8.742188 9.054688 -8.632812 9.046875 -8.53125 C 8.984375 -7.8125 8.882812 -7.140625 8.75 -6.515625 C 8.625 -5.898438 8.488281 -5.316406 8.34375 -4.765625 C 8.195312 -4.222656 8.039062 -3.707031 7.875 -3.21875 C 7.71875 -2.726562 7.570312 -2.253906 7.4375 -1.796875 C 7.300781 -1.335938 7.1875 -0.882812 7.09375 -0.4375 C 7 0 6.941406 0.445312 6.921875 0.90625 C 6.765625 0.875 6.617188 0.78125 6.484375 0.625 C 6.359375 0.476562 6.242188 0.296875 6.140625 0.078125 C 6.046875 -0.140625 5.960938 -0.375 5.890625 -0.625 C 5.816406 -0.882812 5.757812 -1.132812 5.71875 -1.375 C 5.675781 -1.613281 5.644531 -1.828125 5.625 -2.015625 C 5.601562 -2.203125 5.601562 -2.34375 5.625 -2.4375 C 5.40625 -2.25 5.179688 -2.019531 4.953125 -1.75 C 4.734375 -1.488281 4.488281 -1.234375 4.21875 -0.984375 C 3.957031 -0.734375 3.664062 -0.519531 3.34375 -0.34375 C 3.03125 -0.164062 2.675781 -0.078125 2.28125 -0.078125 C 1.695312 -0.078125 1.25 -0.25 0.9375 -0.59375 C 0.632812 -0.9375 0.476562 -1.390625 0.46875 -1.953125 Z M 0.46875 -1.953125 "/></g></g></g><g fill="#000000" fill-opacity="1"><g transform="translate(125.014936, 61.604187)"><g><path d="M 5.984375 -0.078125 C 5.953125 -0.0664062 5.925781 -0.0507812 5.90625 -0.03125 C 5.894531 -0.0078125 5.882812 0.00390625 5.875 0.015625 C 5.875 0.0351562 5.867188 0.0507812 5.859375 0.0625 C 5.859375 0.0703125 5.851562 0.0664062 5.84375 0.046875 C 5.820312 0.00390625 5.800781 -0.0390625 5.78125 -0.09375 C 5.757812 -0.15625 5.738281 -0.21875 5.71875 -0.28125 C 5.695312 -0.34375 5.679688 -0.394531 5.671875 -0.4375 C 5.660156 -0.488281 5.65625 -0.523438 5.65625 -0.546875 C 5.59375 -1.140625 5.601562 -1.726562 5.6875 -2.3125 C 5.769531 -2.894531 5.882812 -3.46875 6.03125 -4.03125 C 6.1875 -4.601562 6.363281 -5.160156 6.5625 -5.703125 C 6.769531 -6.253906 6.972656 -6.796875 7.171875 -7.328125 C 6.929688 -7.171875 6.675781 -6.972656 6.40625 -6.734375 C 6.144531 -6.492188 5.890625 -6.234375 5.640625 -5.953125 C 5.390625 -5.671875 5.148438 -5.382812 4.921875 -5.09375 C 4.703125 -4.8125 4.519531 -4.550781 4.375 -4.3125 L 2.328125 -0.46875 C 2.285156 -0.40625 2.210938 -0.359375 2.109375 -0.328125 C 2.015625 -0.296875 1.910156 -0.269531 1.796875 -0.25 C 1.679688 -0.238281 1.566406 -0.234375 1.453125 -0.234375 C 1.347656 -0.234375 1.273438 -0.234375 1.234375 -0.234375 C 1.128906 -0.234375 1.019531 -0.25 0.90625 -0.28125 C 0.800781 -0.3125 0.707031 -0.359375 0.625 -0.421875 C 0.550781 -0.484375 0.492188 -0.554688 0.453125 -0.640625 C 0.421875 -0.734375 0.414062 -0.835938 0.4375 -0.953125 C 0.476562 -1.234375 0.585938 -1.554688 0.765625 -1.921875 C 0.953125 -2.285156 1.160156 -2.691406 1.390625 -3.140625 C 1.617188 -3.585938 1.847656 -4.078125 2.078125 -4.609375 C 2.316406 -5.148438 2.507812 -5.726562 2.65625 -6.34375 C 2.65625 -6.40625 2.628906 -6.425781 2.578125 -6.40625 C 2.523438 -6.382812 2.457031 -6.34375 2.375 -6.28125 C 2.289062 -6.21875 2.207031 -6.132812 2.125 -6.03125 C 2.039062 -5.9375 1.96875 -5.84375 1.90625 -5.75 C 1.894531 -5.988281 1.914062 -6.253906 1.96875 -6.546875 C 2.03125 -6.847656 2.117188 -7.144531 2.234375 -7.4375 C 2.347656 -7.738281 2.476562 -8.023438 2.625 -8.296875 C 2.78125 -8.566406 2.9375 -8.796875 3.09375 -8.984375 C 3.257812 -9.179688 3.421875 -9.320312 3.578125 -9.40625 C 3.742188 -9.5 3.894531 -9.515625 4.03125 -9.453125 C 4.15625 -9.398438 4.242188 -9.304688 4.296875 -9.171875 C 4.347656 -9.035156 4.378906 -8.875 4.390625 -8.6875 C 4.398438 -8.507812 4.390625 -8.320312 4.359375 -8.125 C 4.335938 -7.925781 4.3125 -7.734375 4.28125 -7.546875 C 4.25 -7.359375 4.21875 -7.1875 4.1875 -7.03125 C 4.15625 -6.882812 4.140625 -6.773438 4.140625 -6.703125 C 4.359375 -6.929688 4.625 -7.207031 4.9375 -7.53125 C 5.25 -7.863281 5.582031 -8.179688 5.9375 -8.484375 C 6.289062 -8.785156 6.644531 -9.039062 7 -9.25 C 7.351562 -9.457031 7.675781 -9.554688 7.96875 -9.546875 C 8.1875 -9.546875 8.394531 -9.476562 8.59375 -9.34375 C 8.789062 -9.21875 8.957031 -9.054688 9.09375 -8.859375 C 9.226562 -8.660156 9.328125 -8.441406 9.390625 -8.203125 C 9.460938 -7.960938 9.476562 -7.726562 9.4375 -7.5 C 9.332031 -6.84375 9.175781 -6.195312 8.96875 -5.5625 C 8.757812 -4.9375 8.539062 -4.34375 8.3125 -3.78125 C 8.09375 -3.226562 7.882812 -2.71875 7.6875 -2.25 C 7.5 -1.789062 7.363281 -1.394531 7.28125 -1.0625 C 7.207031 -0.78125 7.148438 -0.519531 7.109375 -0.28125 C 7.066406 -0.0390625 7.03125 0.175781 7 0.375 C 6.976562 0.582031 6.957031 0.773438 6.9375 0.953125 C 6.914062 1.128906 6.894531 1.289062 6.875 1.4375 C 6.757812 1.5 6.660156 1.507812 6.578125 1.46875 C 6.492188 1.425781 6.421875 1.351562 6.359375 1.25 C 6.304688 1.15625 6.257812 1.039062 6.21875 0.90625 C 6.175781 0.769531 6.140625 0.632812 6.109375 0.5 C 6.085938 0.363281 6.066406 0.242188 6.046875 0.140625 C 6.023438 0.0351562 6.003906 -0.0351562 5.984375 -0.078125 Z M 5.984375 -0.078125 "/></g></g></g></g></g></g></g></g></g></mask><clipPath id="78258f06a6"><path d="M 0.691406 0.929688 L 177.46875 0.929688 L 177.46875 114.039062 L 0.691406 114.039062 Z M 0.691406 0.929688 " clip-rule="nonzero"/></clipPath><clipPath id="50d9dd6fdc"><rect x="0" width="178" y="0" height="115"/></clipPath><clipPath id="a4c556114d"><rect x="0" width="178" y="0" height="115"/></clipPath></defs><g clip-path="url(#d2ee9b1c5a)"><path fill="#ff8c72" d="M 79.183594 216.714844 C 59.585938 214.996094 29.433594 212.6875 19.339844 193.675781 C 50.609375 215.5625 91.9375 215.792969 127.621094 205.789062 C 179.304688 191.191406 229.429688 169.214844 283.421875 164.339844 C 314.351562 161.21875 347.007812 160.382812 375.6875 174.199219 C 379.359375 176.027344 383.207031 177.660156 386.503906 180.179688 C 392.625 184.984375 387.003906 195.003906 379.660156 191.902344 C 364.28125 183.070312 346.136719 176.898438 328.558594 175.65625 C 279.339844 171.949219 230.636719 182.960938 183.6875 196.707031 C 152.433594 205.167969 120.898438 217.035156 88.246094 217.035156 C 85.230469 217.035156 82.214844 216.929688 79.183594 216.714844 Z M 79.183594 216.714844 " fill-opacity="1" fill-rule="nonzero"/></g><g clip-path="url(#ce362eed1b)"><path fill="#f4b860" d="M 237.769531 33.820312 C 237.128906 31.277344 236.289062 29.378906 235.226562 27.003906 L 233.105469 23.289062 C 232.460938 22.476562 232.628906 22.953125 231.988281 21.808594 C 231.511719 20.914062 230.925781 20.523438 230.367188 19.9375 C 229.78125 18.988281 229.222656 18.148438 228.914062 17.785156 C 228.71875 17.535156 228.410156 17.199219 228.1875 16.863281 L 227.210938 15.773438 L 222.601562 12.085938 C 222.796875 12.730469 222.964844 13.484375 222.851562 14.152344 C 222.628906 14.042969 222.433594 13.957031 222.238281 13.875 C 221.847656 12.367188 222.460938 12.28125 220.5625 11.023438 C 219.445312 10.296875 217.878906 9.738281 216.621094 9.375 C 213.242188 8.371094 208.128906 7.953125 204.527344 8.59375 C 204.136719 8.652344 202.992188 8.761719 202.234375 8.957031 L 201.175781 9.179688 C 201.117188 9.179688 201.0625 9.210938 201.007812 9.210938 C 197.792969 9.824219 194.75 10.550781 191.761719 11.863281 L 187.207031 14.347656 C 186.925781 14.515625 186.730469 14.542969 186.425781 14.796875 C 186.257812 14.9375 185.894531 15.300781 185.671875 15.496094 L 185.027344 16.136719 C 182.597656 18.175781 182.90625 18.007812 180.894531 20.328125 L 180.054688 20.941406 C 179.859375 21.164062 179.71875 21.417969 179.554688 21.695312 C 177.960938 23.988281 177.179688 26.277344 175.753906 28.511719 C 175.503906 28.929688 175.753906 28.402344 175.445312 29.042969 C 175.25 29.460938 175.082031 29.910156 174.886719 30.328125 L 174.050781 32.394531 C 173.628906 33.429688 173.042969 34.714844 172.738281 36 C 172.570312 36.195312 172.457031 36.472656 172.457031 36.753906 L 172.457031 38.039062 C 172.457031 38.261719 172.511719 38.402344 172.597656 38.570312 C 172.597656 38.707031 172.597656 38.847656 172.625 38.988281 C 172.652344 38.988281 172.652344 38.988281 172.652344 38.988281 C 172.679688 39.015625 172.652344 39.042969 172.625 39.070312 C 172.652344 39.15625 172.652344 39.238281 172.707031 39.324219 C 172.738281 39.460938 172.765625 39.546875 172.792969 39.660156 C 172.792969 39.769531 172.792969 39.882812 172.847656 39.992188 C 172.820312 40.160156 172.792969 40.300781 172.792969 40.46875 C 172.765625 40.691406 172.707031 40.914062 172.679688 41.140625 C 172.484375 42.226562 172.597656 43.707031 172.457031 44.628906 L 172.234375 47.339844 C 172.121094 50.75 173.042969 53.039062 174.386719 56 L 177.121094 60.386719 C 177.402344 60.832031 177.542969 61.027344 177.792969 61.449219 C 178.378906 62.480469 179.496094 63.65625 180.390625 64.4375 C 181.480469 65.386719 181.285156 65.863281 183.882812 67.984375 C 186.480469 70.109375 187.09375 70.636719 190.085938 72.425781 C 190.699219 72.789062 191.371094 73.207031 191.957031 73.515625 C 192.09375 73.597656 192.261719 73.683594 192.375 73.738281 C 193.492188 74.296875 195.027344 74.71875 196.0625 75.386719 C 196.230469 75.5 196.371094 75.582031 196.480469 75.640625 C 196.648438 75.722656 196.789062 75.777344 196.984375 75.804688 C 197.179688 75.835938 197.375 75.863281 197.710938 75.917969 C 197.625 75.945312 197.597656 75.972656 197.597656 76 C 197.738281 76.449219 204.21875 77.984375 204.972656 78.070312 C 206.371094 78.179688 207.960938 78.265625 209.386719 77.875 C 210.113281 77.679688 210.839844 77.648438 211.484375 77.425781 L 215.644531 75.5 L 219.5 73.738281 L 221.0625 73.011719 C 221.652344 72.539062 221.316406 72.902344 221.902344 72.566406 L 227.265625 68.320312 C 227.515625 68.039062 227.292969 68.265625 227.574219 67.984375 C 228.496094 67.117188 229.332031 66.390625 230.003906 65.246094 C 230.675781 64.101562 231.484375 63.710938 232.125 62.453125 L 232.683594 61.503906 C 233.523438 60.21875 234 58.457031 234.890625 57.203125 L 236.175781 55.273438 C 238.636719 51.894531 238.609375 48.207031 239.25 44.238281 L 239.472656 42.480469 C 239.667969 40.160156 238.300781 35.886719 237.769531 33.820312 Z M 175 50.609375 C 175 50.496094 175.109375 50.523438 175.195312 50.496094 C 175.195312 50.609375 175.082031 50.582031 175 50.609375 Z M 176.117188 42.675781 C 176.394531 42.675781 176.507812 42.816406 176.535156 43.09375 C 176.171875 43.148438 176.144531 42.898438 176.117188 42.675781 Z M 176.507812 35.328125 C 176.480469 35.132812 176.984375 35.1875 176.816406 35.441406 C 176.757812 35.441406 176.675781 35.441406 176.621094 35.441406 C 176.648438 35.355469 176.589844 35.328125 176.507812 35.328125 Z M 176.84375 47.648438 C 176.898438 47.703125 176.757812 47.789062 176.730469 47.757812 C 176.675781 47.703125 176.816406 47.621094 176.84375 47.648438 Z M 176.925781 59.046875 C 176.871094 59.046875 176.789062 59.046875 176.730469 59.046875 C 176.730469 58.988281 176.730469 58.90625 176.730469 58.851562 C 176.789062 58.851562 176.871094 58.851562 176.925781 58.851562 C 176.925781 58.90625 176.925781 58.988281 176.925781 59.046875 Z M 177.039062 29.351562 C 177.039062 29.238281 177.152344 29.265625 177.234375 29.238281 C 177.234375 29.324219 177.121094 29.292969 177.039062 29.351562 Z M 177.347656 37.785156 C 177.347656 37.675781 177.457031 37.703125 177.542969 37.675781 C 177.542969 37.785156 177.429688 37.757812 177.347656 37.785156 Z M 177.765625 47.757812 C 178.183594 47.675781 178.269531 47.898438 178.269531 48.261719 C 177.847656 48.347656 177.765625 48.121094 177.765625 47.757812 Z M 178.351562 45.414062 C 178.324219 45.550781 178.183594 45.582031 178.15625 45.71875 C 178.042969 45.691406 178.070312 45.523438 178.042969 45.414062 C 178.15625 45.414062 178.238281 45.414062 178.351562 45.414062 Z M 178.15625 40.21875 C 178.183594 40.105469 178.269531 40.160156 178.269531 40.21875 C 178.238281 40.328125 178.15625 40.273438 178.15625 40.21875 Z M 177.960938 34.628906 C 177.90625 34.574219 178.042969 34.492188 178.070312 34.519531 C 178.128906 34.574219 177.988281 34.65625 177.960938 34.628906 Z M 177.847656 29.742188 C 177.875 29.628906 177.960938 29.683594 177.960938 29.742188 C 177.933594 29.851562 177.847656 29.796875 177.847656 29.742188 Z M 178.269531 46.417969 C 178.296875 46.277344 178.464844 46.308594 178.464844 46.417969 C 178.378906 46.503906 178.296875 46.558594 178.269531 46.417969 Z M 178.464844 36.640625 C 178.40625 36.640625 178.324219 36.640625 178.269531 36.640625 C 178.269531 36.585938 178.269531 36.5 178.269531 36.445312 C 178.324219 36.445312 178.40625 36.445312 178.464844 36.445312 C 178.464844 36.53125 178.464844 36.585938 178.464844 36.640625 Z M 178.546875 42.871094 C 178.492188 42.816406 178.632812 42.730469 178.660156 42.757812 C 178.714844 42.816406 178.601562 42.898438 178.546875 42.871094 Z M 179.078125 41.140625 C 179.023438 41.140625 178.9375 41.140625 178.882812 41.140625 C 178.828125 41.054688 178.769531 40.972656 178.769531 40.832031 C 179.050781 40.832031 178.992188 40.664062 179.191406 40.832031 C 179.132812 40.914062 179.078125 41 179.078125 41.140625 Z M 180.082031 45.523438 C 180.027344 45.46875 180.167969 45.386719 180.195312 45.414062 C 180.25 45.46875 180.113281 45.550781 180.082031 45.523438 Z M 180.277344 34.9375 C 180.308594 34.824219 180.390625 34.882812 180.390625 34.9375 C 180.390625 35.050781 180.308594 34.992188 180.277344 34.9375 Z M 181.089844 42.257812 C 181.035156 42.199219 181.171875 42.117188 181.199219 42.144531 C 181.257812 42.199219 181.144531 42.285156 181.089844 42.257812 Z M 180.894531 27.144531 C 180.894531 27.085938 180.894531 27.003906 180.894531 26.949219 C 180.949219 26.949219 181.035156 26.949219 181.089844 26.949219 C 181.089844 27.003906 181.089844 27.085938 181.089844 27.144531 C 181.035156 27.144531 180.949219 27.144531 180.894531 27.144531 Z M 181.199219 38.988281 C 181.285156 38.847656 181.425781 38.820312 181.621094 38.792969 C 181.703125 39.101562 181.367188 38.960938 181.199219 38.988281 Z M 181.816406 32.898438 C 181.871094 32.953125 181.757812 33.011719 181.703125 33.011719 C 181.648438 32.953125 181.789062 32.871094 181.816406 32.898438 Z M 181.730469 51 C 181.675781 50.972656 181.789062 50.886719 181.84375 50.886719 C 181.898438 50.945312 181.757812 51.027344 181.730469 51 Z M 181.925781 64.242188 C 182.09375 64.214844 182.09375 64.351562 182.234375 64.351562 C 182.261719 64.546875 181.757812 64.492188 181.925781 64.242188 Z M 182.039062 32.980469 C 182.121094 33.011719 182.121094 33.09375 182.234375 33.09375 C 182.207031 33.175781 182.121094 33.207031 182.121094 33.289062 C 182.039062 33.261719 182.039062 33.175781 181.925781 33.175781 C 181.957031 33.09375 182.039062 33.09375 182.039062 32.980469 Z M 181.925781 26.164062 C 181.925781 26.054688 181.925781 25.96875 181.925781 25.859375 C 182.234375 25.71875 182.234375 26.332031 181.925781 26.164062 Z M 182.234375 33.402344 C 182.710938 33.457031 182.152344 34.015625 182.234375 33.402344 Z M 180.976562 21.835938 L 179.71875 23.457031 C 177.792969 26.5 176.871094 29.683594 176.257812 30.859375 C 175.949219 31.472656 175.835938 31.558594 175.585938 32.253906 C 174.945312 33.960938 173.964844 35.550781 173.964844 37.703125 C 173.992188 41.753906 173.882812 38.429688 173.546875 40.1875 C 172.792969 38.847656 174.160156 32.871094 174.972656 30.804688 L 178.492188 24.125 C 178.519531 24.097656 178.574219 24.042969 178.601562 24.015625 C 178.796875 23.761719 179.132812 23.539062 178.9375 23.121094 L 179.75 22.449219 C 180.277344 21.640625 181.925781 19.824219 182.515625 19.515625 C 182.152344 20.4375 181.535156 21.164062 180.976562 21.835938 Z M 182.542969 33.289062 C 182.484375 33.234375 182.625 33.175781 182.652344 33.175781 C 182.710938 33.234375 182.570312 33.316406 182.542969 33.289062 Z M 182.933594 49.996094 C 182.933594 49.9375 182.933594 49.855469 182.933594 49.796875 C 183.15625 49.742188 183.269531 49.796875 183.242188 49.996094 C 183.128906 49.996094 183.042969 49.996094 182.933594 49.996094 Z M 182.625 20.46875 C 182.878906 20.410156 183.015625 20.300781 183.351562 20.355469 C 183.378906 20.773438 182.652344 20.941406 182.625 20.46875 Z M 220.003906 44.992188 C 219.976562 45.132812 219.890625 45.050781 219.890625 44.992188 C 219.917969 44.882812 220.003906 44.9375 220.003906 44.992188 Z M 219.191406 14.042969 C 219.25 14.097656 219.109375 14.179688 219.082031 14.152344 C 219.023438 14.097656 219.164062 14.015625 219.191406 14.042969 Z M 218.464844 55.496094 C 218.523438 55.496094 218.605469 55.496094 218.660156 55.496094 C 218.660156 55.554688 218.660156 55.636719 218.660156 55.691406 C 218.605469 55.691406 218.523438 55.691406 218.464844 55.691406 C 218.464844 55.636719 218.464844 55.554688 218.464844 55.496094 Z M 217.878906 38.375 C 217.90625 38.429688 217.796875 38.511719 217.769531 38.484375 C 217.710938 38.429688 217.851562 38.34375 217.878906 38.375 Z M 217.574219 44.296875 C 217.515625 44.40625 217.433594 44.492188 217.265625 44.492188 C 217.210938 44.296875 217.40625 44.296875 217.574219 44.296875 Z M 217.460938 69.855469 C 217.460938 69.910156 217.460938 69.96875 217.460938 70.050781 C 217.40625 70.050781 217.320312 70.050781 217.265625 70.050781 C 217.265625 69.996094 217.265625 69.910156 217.265625 69.855469 C 217.320312 69.855469 217.40625 69.855469 217.460938 69.855469 Z M 216.957031 22.703125 C 216.984375 22.589844 217.238281 22.617188 217.265625 22.703125 C 217.347656 22.925781 216.875 22.953125 216.957031 22.703125 Z M 216.761719 49.378906 C 216.816406 49.4375 216.679688 49.519531 216.652344 49.492188 C 216.59375 49.4375 216.707031 49.351562 216.761719 49.378906 Z M 216.148438 50.496094 C 216.175781 50.554688 216.0625 50.636719 216.035156 50.609375 C 215.980469 50.554688 216.121094 50.46875 216.148438 50.496094 Z M 216.035156 41.949219 C 215.617188 42.003906 216.121094 41.667969 215.730469 41.640625 C 215.839844 41.335938 216.0625 41.78125 216.035156 41.949219 Z M 215.925781 39.101562 C 215.867188 39.101562 215.785156 39.101562 215.730469 39.101562 C 215.730469 39.042969 215.730469 38.960938 215.730469 38.902344 C 215.785156 38.902344 215.867188 38.902344 215.925781 38.902344 C 215.925781 38.960938 215.925781 39.042969 215.925781 39.101562 Z M 215.730469 31.78125 C 215.785156 31.808594 215.644531 31.890625 215.617188 31.890625 C 215.5625 31.835938 215.699219 31.753906 215.730469 31.78125 Z M 215.003906 12.730469 C 215.367188 12.476562 214.777344 13.0625 215.003906 12.730469 Z M 214.835938 64.464844 C 214.695312 64.410156 214.75 64.183594 214.722656 64.046875 C 215.113281 64.019531 214.75 64.269531 214.835938 64.464844 Z M 214.191406 54.15625 C 214.277344 53.90625 214.527344 53.820312 214.917969 53.847656 C 214.835938 54.101562 214.582031 54.210938 214.191406 54.15625 Z M 214.5 71.980469 C 214.5 72.089844 214.386719 72.0625 214.304688 72.089844 C 214.304688 71.980469 214.414062 72.007812 214.5 71.980469 Z M 214.109375 34.714844 C 214.023438 34.714844 213.96875 34.714844 213.914062 34.714844 C 213.914062 34.628906 213.855469 34.601562 213.800781 34.601562 C 213.773438 34.40625 214.277344 34.460938 214.109375 34.714844 Z M 214.304688 42.367188 C 214.695312 42.871094 213.773438 42.757812 214.304688 42.367188 Z M 213.578125 31.363281 C 213.632812 31.25 213.855469 31.277344 213.886719 31.363281 C 213.96875 31.585938 213.523438 31.585938 213.578125 31.363281 Z M 213.773438 46.949219 C 213.773438 47.003906 213.773438 47.089844 213.773438 47.144531 C 213.71875 47.144531 213.632812 47.144531 213.578125 47.144531 C 213.578125 47.0625 213.578125 47.003906 213.578125 46.949219 C 213.632812 46.949219 213.71875 46.949219 213.773438 46.949219 Z M 214.191406 62.203125 C 214.023438 62.203125 213.996094 62.339844 213.800781 62.3125 C 213.746094 62.230469 213.691406 62.144531 213.691406 62.007812 C 213.828125 61.839844 214.277344 61.839844 214.191406 62.203125 Z M 214.808594 33.289062 C 214.863281 33.34375 214.75 33.429688 214.695312 33.402344 C 214.640625 33.34375 214.777344 33.261719 214.808594 33.289062 Z M 214.191406 16.191406 C 214.25 16.25 214.136719 16.332031 214.082031 16.304688 C 214.023438 16.25 214.164062 16.164062 214.191406 16.191406 Z M 213.492188 16.304688 C 213.605469 16.222656 213.773438 16.164062 213.996094 16.191406 C 213.855469 16.527344 213.828125 16.976562 214.414062 16.808594 C 214.164062 17.253906 213.242188 17.003906 213.492188 16.304688 Z M 213.578125 59.660156 C 213.492188 59.714844 213.410156 59.773438 213.382812 59.660156 C 213.410156 59.546875 213.578125 59.574219 213.578125 59.660156 Z M 213.382812 11.722656 C 213.464844 11.945312 213.019531 11.945312 213.074219 11.722656 C 213.101562 11.613281 213.355469 11.640625 213.382812 11.722656 Z M 212.878906 28.929688 C 212.964844 28.734375 213.046875 28.566406 213.074219 28.316406 C 213.4375 28.234375 213.242188 29.070312 212.878906 28.929688 Z M 212.878906 10.996094 C 212.851562 11.109375 212.769531 11.054688 212.769531 10.996094 C 212.796875 10.886719 212.878906 10.941406 212.878906 10.996094 Z M 211.875 14.878906 C 211.929688 14.878906 212.011719 14.878906 212.070312 14.878906 C 212.070312 14.9375 212.070312 15.019531 212.070312 15.074219 C 212.011719 15.074219 211.929688 15.074219 211.875 15.074219 C 211.875 15.019531 211.875 14.9375 211.875 14.878906 Z M 211.257812 53.261719 C 211.148438 53.320312 211.0625 53.375 211.0625 53.261719 C 211.089844 53.125 211.257812 53.152344 211.257812 53.261719 Z M 211.035156 46.726562 C 210.8125 46.753906 210.699219 46.640625 210.726562 46.417969 C 210.839844 46.53125 211.121094 46.472656 211.035156 46.726562 Z M 210.839844 58.152344 C 211.175781 57.898438 210.589844 58.488281 210.839844 58.152344 Z M 210.335938 49.183594 C 210.335938 48.875 210.8125 48.933594 210.757812 49.296875 C 210.644531 49.210938 210.503906 49.183594 210.335938 49.183594 Z M 210.617188 71.589844 C 210.53125 71.558594 210.53125 71.476562 210.421875 71.476562 C 210.421875 71.421875 210.421875 71.335938 210.421875 71.28125 C 210.644531 71.226562 210.617188 71.421875 210.617188 71.589844 Z M 210.726562 48.765625 C 210.476562 48.765625 210.335938 48.625 210.308594 48.347656 C 210.5625 48.402344 210.8125 48.429688 210.726562 48.765625 Z M 210.644531 30.664062 C 210.644531 30.550781 210.757812 30.578125 210.839844 30.550781 C 210.839844 30.636719 210.726562 30.636719 210.644531 30.664062 Z M 210.839844 24.824219 C 210.785156 24.824219 210.699219 24.824219 210.644531 24.824219 C 210.644531 24.769531 210.644531 24.683594 210.644531 24.628906 C 210.699219 24.628906 210.785156 24.628906 210.839844 24.628906 C 210.839844 24.714844 210.839844 24.769531 210.839844 24.824219 Z M 210.726562 13.257812 C 210.503906 13.289062 210.335938 13.230469 210.226562 13.148438 C 210.226562 12.839844 210.839844 12.867188 210.726562 13.257812 Z M 209.835938 13.34375 C 209.777344 13.484375 209.722656 13.34375 209.640625 13.34375 C 209.667969 13.203125 209.835938 13.230469 209.835938 13.34375 Z M 209.609375 35.941406 C 209.527344 36 209.445312 36.054688 209.414062 35.941406 C 209.445312 35.804688 209.609375 35.832031 209.609375 35.941406 Z M 209.21875 33.902344 C 209.554688 33.652344 208.96875 34.238281 209.21875 33.902344 Z M 208.914062 63.011719 C 208.855469 62.984375 208.96875 62.898438 209.023438 62.898438 C 209.082031 62.957031 208.941406 63.039062 208.914062 63.011719 Z M 208.71875 40.746094 C 208.855469 40.382812 209.191406 40.859375 208.914062 40.945312 C 208.855469 40.945312 208.6875 40.804688 208.71875 40.746094 Z M 208.6875 14.347656 C 208.6875 14.488281 208.605469 14.40625 208.578125 14.347656 C 208.605469 14.238281 208.6875 14.292969 208.6875 14.347656 Z M 208.605469 14.042969 C 208.660156 14.097656 208.523438 14.179688 208.492188 14.152344 C 208.4375 14.097656 208.578125 14.015625 208.605469 14.042969 Z M 208.296875 72.59375 C 208.464844 72.566406 208.464844 72.675781 208.605469 72.707031 C 208.632812 72.902344 208.128906 72.84375 208.296875 72.59375 Z M 208.101562 26.863281 C 208.160156 26.921875 208.019531 27.003906 207.992188 26.976562 C 207.933594 26.921875 208.074219 26.863281 208.101562 26.863281 Z M 207.796875 13.425781 C 207.851562 13.484375 207.710938 13.566406 207.683594 13.539062 C 207.628906 13.484375 207.765625 13.425781 207.796875 13.425781 Z M 207.375 15.691406 C 207.570312 15.71875 207.824219 15.71875 207.796875 15.996094 C 207.515625 16.023438 207.347656 15.96875 207.375 15.691406 Z M 193.4375 69.550781 C 193.464844 69.410156 193.632812 69.464844 193.742188 69.4375 C 193.714844 69.550781 193.546875 69.519531 193.4375 69.550781 Z M 194.050781 42.367188 C 194.050781 42.257812 194.164062 42.285156 194.246094 42.257812 C 194.246094 42.367188 194.136719 42.339844 194.050781 42.367188 Z M 194.441406 43.988281 C 194.441406 44.070312 194.332031 44.070312 194.246094 44.101562 C 194.246094 43.988281 194.359375 44.015625 194.441406 43.988281 Z M 194.136719 73.488281 C 194.136719 73.597656 194.023438 73.570312 193.9375 73.597656 C 193.9375 73.515625 194.078125 73.542969 194.136719 73.488281 Z M 193.828125 56.503906 C 193.855469 56.417969 193.96875 56.417969 194.023438 56.390625 C 194.023438 56.503906 193.910156 56.476562 193.828125 56.503906 Z M 194.945312 17.199219 C 194.972656 17.113281 195.085938 17.144531 195.140625 17.085938 C 195.140625 17.199219 195.027344 17.171875 194.945312 17.199219 Z M 195.167969 20.773438 C 195.140625 20.886719 195.058594 20.832031 195.058594 20.773438 C 195.085938 20.664062 195.167969 20.71875 195.167969 20.773438 Z M 195.253906 72.789062 C 195.027344 72.816406 194.859375 72.789062 194.75 72.675781 C 194.75 72.398438 195.363281 72.425781 195.253906 72.789062 Z M 195.253906 68.515625 C 195.617188 68.265625 195.027344 68.851562 195.253906 68.515625 Z M 196.285156 19.769531 C 196.230469 19.710938 196.34375 19.628906 196.398438 19.65625 C 196.453125 19.710938 196.3125 19.796875 196.285156 19.769531 Z M 196.59375 45.300781 C 196.539062 45.46875 196.507812 45.300781 196.398438 45.300781 C 196.425781 45.160156 196.59375 45.191406 196.59375 45.300781 Z M 196.398438 71.671875 C 196.285156 71.726562 196.203125 71.8125 196.203125 71.671875 C 196.230469 71.53125 196.398438 71.558594 196.398438 71.671875 Z M 196.59375 72.285156 C 196.621094 72.566406 196.539062 72.734375 196.285156 72.707031 C 196.285156 72.511719 196.144531 72.480469 196.175781 72.285156 C 196.3125 72.285156 196.453125 72.285156 196.59375 72.285156 Z M 196.675781 72.902344 C 196.675781 72.957031 196.675781 73.039062 196.675781 73.097656 C 196.621094 73.097656 196.539062 73.097656 196.480469 73.097656 C 196.480469 73.039062 196.480469 72.957031 196.480469 72.902344 C 196.539062 72.902344 196.621094 72.902344 196.675781 72.902344 Z M 196.089844 34.519531 C 196.425781 34.265625 195.839844 34.855469 196.089844 34.519531 Z M 196.089844 72.480469 C 196.144531 72.539062 196.007812 72.621094 195.980469 72.59375 C 195.921875 72.539062 196.0625 72.453125 196.089844 72.480469 Z M 195.980469 73.097656 C 196.035156 73.152344 195.894531 73.234375 195.867188 73.207031 C 195.8125 73.152344 195.949219 73.070312 195.980469 73.097656 Z M 195.753906 36.753906 C 195.78125 36.640625 195.867188 36.695312 195.867188 36.753906 C 195.867188 36.863281 195.78125 36.808594 195.753906 36.753906 Z M 196.871094 26.472656 C 196.816406 26.417969 196.957031 26.332031 196.984375 26.359375 C 197.039062 26.417969 196.929688 26.5 196.871094 26.472656 Z M 197.097656 60.078125 C 197.152344 60.136719 197.011719 60.191406 196.984375 60.191406 C 196.929688 60.136719 197.066406 60.050781 197.097656 60.078125 Z M 196.902344 72.675781 C 196.957031 72.734375 196.816406 72.816406 196.789062 72.789062 C 196.734375 72.734375 196.871094 72.675781 196.902344 72.675781 Z M 197.710938 72.398438 C 197.710938 72.675781 197.097656 72.648438 197.207031 72.285156 C 197.429688 72.257812 197.597656 72.316406 197.710938 72.398438 Z M 197.710938 71.671875 C 197.765625 71.726562 197.625 71.8125 197.597656 71.785156 C 197.542969 71.726562 197.683594 71.644531 197.710938 71.671875 Z M 197.824219 15.074219 C 197.824219 15.019531 197.824219 14.9375 197.824219 14.878906 C 198.019531 14.824219 198.019531 15.019531 198.019531 15.1875 C 197.933594 15.160156 197.933594 15.074219 197.824219 15.074219 Z M 198.019531 69.550781 C 198.019531 69.605469 198.019531 69.6875 198.019531 69.746094 C 197.960938 69.746094 197.878906 69.746094 197.824219 69.746094 C 197.824219 69.6875 197.824219 69.605469 197.824219 69.550781 C 197.878906 69.550781 197.960938 69.550781 198.019531 69.550781 Z M 198.296875 35.550781 C 198.296875 35.414062 198.296875 35.273438 198.296875 35.132812 C 198.519531 35.105469 198.578125 35.214844 198.714844 35.246094 C 198.632812 35.382812 198.578125 35.550781 198.296875 35.550781 Z M 198.828125 46.613281 C 198.828125 46.726562 198.714844 46.699219 198.632812 46.726562 C 198.632812 46.640625 198.746094 46.671875 198.828125 46.613281 Z M 198.941406 35.246094 C 199.273438 34.992188 198.6875 35.578125 198.941406 35.246094 Z M 199.246094 41.335938 C 199.273438 41.390625 199.164062 41.472656 199.136719 41.445312 C 199.078125 41.390625 199.21875 41.304688 199.246094 41.335938 Z M 199.21875 37.367188 C 199.246094 37.257812 199.332031 37.3125 199.332031 37.367188 C 199.332031 37.480469 199.246094 37.421875 199.21875 37.367188 Z M 200.671875 25.160156 C 200.980469 24.769531 201.007812 25.46875 200.671875 25.160156 Z M 200.867188 72.480469 C 200.8125 72.648438 200.785156 72.480469 200.671875 72.480469 C 200.699219 72.34375 200.867188 72.371094 200.867188 72.480469 Z M 200.671875 19.152344 C 200.617188 19.152344 200.53125 19.152344 200.476562 19.152344 C 200.476562 19.070312 200.421875 19.042969 200.363281 19.042969 C 200.308594 18.847656 200.8125 18.902344 200.671875 19.152344 Z M 200.449219 48.152344 C 200.363281 48.207031 200.28125 48.261719 200.253906 48.152344 C 200.28125 48.039062 200.449219 48.066406 200.449219 48.152344 Z M 201.0625 55.804688 C 201.035156 55.636719 201.175781 55.636719 201.175781 55.496094 C 201.371094 55.554688 201.398438 55.636719 201.257812 55.804688 C 201.203125 55.804688 201.117188 55.804688 201.0625 55.804688 Z M 202.597656 62.117188 C 202.597656 62.007812 202.710938 62.035156 202.792969 62.007812 C 202.792969 62.117188 202.683594 62.089844 202.597656 62.117188 Z M 204.109375 26.695312 C 204.050781 26.640625 204.191406 26.558594 204.21875 26.585938 C 204.273438 26.640625 204.164062 26.695312 204.109375 26.695312 Z M 204.332031 60.164062 C 204.304688 60.300781 204.21875 60.21875 204.21875 60.164062 C 204.246094 60.050781 204.332031 60.105469 204.332031 60.164062 Z M 206.0625 66.476562 C 206.117188 66.53125 205.980469 66.617188 205.953125 66.585938 C 205.894531 66.53125 206.035156 66.449219 206.0625 66.476562 Z M 206.875 13.847656 C 206.929688 13.902344 206.789062 13.984375 206.761719 13.957031 C 206.707031 13.902344 206.84375 13.820312 206.875 13.847656 Z M 206.789062 20.550781 C 206.84375 20.605469 206.707031 20.691406 206.679688 20.664062 C 206.621094 20.605469 206.734375 20.550781 206.789062 20.550781 Z M 206.789062 48.875 C 206.84375 48.933594 206.707031 49.015625 206.679688 48.988281 C 206.621094 48.933594 206.734375 48.847656 206.789062 48.875 Z M 205.953125 60.191406 C 206.035156 60.191406 206.0625 60.136719 206.0625 60.078125 C 206.257812 60.023438 206.203125 60.527344 205.953125 60.386719 C 205.953125 60.332031 205.953125 60.246094 205.953125 60.191406 Z M 205.953125 64.046875 C 205.617188 64.128906 205.644531 63.878906 205.449219 63.820312 C 205.449219 63.597656 205.699219 63.597656 205.953125 63.625 C 205.953125 63.765625 205.953125 63.90625 205.953125 64.046875 Z M 205.757812 58.542969 C 206.089844 58.292969 205.503906 58.878906 205.757812 58.542969 Z M 205.757812 11.109375 C 205.8125 11.164062 205.671875 11.21875 205.644531 11.21875 C 205.589844 11.164062 205.726562 11.082031 205.757812 11.109375 Z M 205.558594 39.40625 C 205.558594 39.6875 205.253906 39.742188 205.140625 39.601562 C 205.167969 39.433594 205.335938 39.378906 205.558594 39.40625 Z M 205.335938 46.640625 C 205.335938 46.726562 205.226562 46.726562 205.140625 46.753906 C 205.140625 46.640625 205.253906 46.671875 205.335938 46.640625 Z M 204.835938 37.257812 C 204.835938 37.171875 204.945312 37.199219 205.03125 37.144531 C 205.03125 37.257812 204.917969 37.226562 204.835938 37.257812 Z M 204.917969 36.753906 C 204.890625 36.894531 204.722656 36.863281 204.722656 36.753906 C 204.777344 36.613281 204.835938 36.78125 204.917969 36.753906 Z M 203.996094 25.886719 C 204.273438 25.800781 204.21875 26.082031 204.414062 26.082031 C 204.359375 26.304688 203.914062 26.109375 203.996094 25.886719 Z M 203.714844 29.433594 C 203.6875 29.546875 203.519531 29.519531 203.519531 29.433594 C 203.550781 29.292969 203.605469 29.433594 203.714844 29.433594 Z M 203.410156 41.027344 C 203.882812 41.109375 203.324219 41.640625 203.410156 41.027344 Z M 202.792969 19.742188 C 202.792969 19.683594 202.792969 19.601562 202.792969 19.546875 C 202.992188 19.515625 203.128906 19.574219 203.101562 19.742188 C 202.992188 19.742188 202.90625 19.742188 202.792969 19.742188 Z M 192.320312 13.34375 C 192.292969 13.457031 192.207031 13.398438 192.207031 13.34375 C 192.234375 13.230469 192.320312 13.289062 192.320312 13.34375 Z M 186.398438 58.738281 C 186.703125 58.375 186.761719 59.046875 186.398438 58.738281 Z M 186.925781 56.390625 C 187.09375 56.363281 187.09375 56.503906 187.234375 56.503906 C 187.261719 56.699219 186.761719 56.671875 186.925781 56.390625 Z M 187.429688 56.308594 C 187.457031 56.167969 187.625 56.195312 187.625 56.308594 C 187.597656 56.449219 187.542969 56.308594 187.429688 56.308594 Z M 187.933594 55.191406 C 187.878906 55.132812 188.015625 55.050781 188.046875 55.078125 C 188.101562 55.132812 187.960938 55.21875 187.933594 55.191406 Z M 188.4375 60.695312 C 188.378906 60.636719 188.519531 60.554688 188.546875 60.582031 C 188.605469 60.636719 188.464844 60.722656 188.4375 60.695312 Z M 188.464844 29.324219 C 188.492188 29.183594 188.660156 29.210938 188.660156 29.324219 C 188.546875 29.378906 188.464844 29.460938 188.464844 29.324219 Z M 188.9375 40.105469 C 188.882812 40.105469 188.800781 40.105469 188.742188 40.105469 C 188.742188 40.050781 188.742188 39.964844 188.742188 39.910156 C 188.828125 39.910156 188.882812 39.910156 188.9375 39.910156 C 188.9375 39.964844 188.9375 40.050781 188.9375 40.105469 Z M 189.164062 40.023438 C 189.164062 39.910156 189.246094 39.964844 189.273438 40.023438 C 189.246094 40.132812 189.164062 40.078125 189.164062 40.023438 Z M 189.664062 59.855469 C 189.691406 59.742188 189.859375 59.773438 189.859375 59.855469 C 189.777344 59.910156 189.691406 59.96875 189.664062 59.855469 Z M 189.972656 65.582031 C 189.972656 65.46875 190.085938 65.5 190.167969 65.46875 C 190.167969 65.554688 190.054688 65.554688 189.972656 65.582031 Z M 190.085938 61.585938 C 189.859375 61.558594 190.054688 61.113281 190.28125 61.167969 C 190.390625 61.503906 190.140625 61.417969 190.085938 61.585938 Z M 189.722656 15.046875 L 192.179688 13.679688 C 195.335938 12.367188 198.6875 10.328125 203.074219 11.054688 C 202.597656 11.136719 202.765625 11.082031 202.265625 11.332031 C 202.207031 11.332031 202.152344 11.359375 202.097656 11.386719 C 199.105469 12.617188 197.375 12.535156 195.058594 13.257812 C 195.085938 13.316406 194.972656 13.371094 194.945312 13.34375 C 194.917969 13.316406 194.917969 13.316406 194.945312 13.289062 C 194.332031 13.484375 193.6875 13.734375 192.960938 14.070312 C 191.871094 14.574219 192.261719 14.070312 190.503906 14.90625 Z M 192.933594 20.886719 C 192.878906 21.027344 192.820312 20.859375 192.738281 20.886719 C 192.765625 20.746094 192.933594 20.773438 192.933594 20.886719 Z M 192.515625 20.578125 C 192.515625 20.46875 192.625 20.496094 192.710938 20.46875 C 192.710938 20.578125 192.597656 20.550781 192.515625 20.578125 Z M 192.402344 65.050781 C 192.851562 65.105469 192.320312 65.664062 192.402344 65.050781 Z M 190.78125 25.96875 C 190.78125 26.054688 190.671875 26.054688 190.585938 26.082031 C 190.585938 25.96875 190.699219 26 190.78125 25.96875 Z M 190.78125 47.648438 C 190.449219 47.535156 190.894531 47.367188 191.089844 47.453125 C 191.0625 47.59375 190.78125 47.480469 190.78125 47.648438 Z M 191.171875 35.132812 C 191.203125 35.019531 191.285156 35.078125 191.285156 35.132812 C 191.285156 35.246094 191.203125 35.1875 191.171875 35.132812 Z M 191.285156 57.117188 C 191.3125 57.007812 191.398438 57.0625 191.398438 57.117188 C 191.371094 57.230469 191.285156 57.171875 191.285156 57.117188 Z M 191.398438 42.5625 C 191.453125 42.5625 191.535156 42.5625 191.59375 42.5625 C 191.59375 42.621094 191.59375 42.703125 191.59375 42.757812 C 191.535156 42.757812 191.453125 42.757812 191.398438 42.757812 C 191.398438 42.703125 191.398438 42.621094 191.398438 42.5625 Z M 191.59375 64.855469 C 191.535156 64.800781 191.675781 64.714844 191.703125 64.742188 C 191.761719 64.800781 191.621094 64.882812 191.59375 64.855469 Z M 219.304688 40.832031 C 219.332031 40.691406 219.5 40.71875 219.5 40.832031 C 219.445312 40.972656 219.417969 40.832031 219.304688 40.832031 Z M 220.003906 45.21875 C 220.058594 45.273438 219.917969 45.328125 219.890625 45.328125 C 219.835938 45.273438 219.976562 45.191406 220.003906 45.21875 Z M 220.085938 63.738281 C 220.03125 63.738281 219.945312 63.738281 219.890625 63.738281 C 219.890625 63.625 219.890625 63.542969 219.890625 63.429688 C 220.003906 63.429688 220.085938 63.429688 220.199219 63.429688 C 220.226562 63.597656 220.113281 63.597656 220.085938 63.738281 Z M 220.308594 41.640625 C 220.367188 41.863281 220.226562 41.921875 220.199219 42.0625 C 219.917969 42.03125 219.976562 41.558594 220.308594 41.640625 Z M 220.308594 64.046875 C 220.253906 63.988281 220.394531 63.90625 220.421875 63.933594 C 220.449219 63.988281 220.339844 64.074219 220.308594 64.046875 Z M 220.394531 46.222656 C 220.421875 46.113281 220.503906 46.167969 220.503906 46.222656 C 220.503906 46.335938 220.421875 46.277344 220.394531 46.222656 Z M 220.085938 17.394531 C 220.226562 17.5625 220.535156 17.535156 220.503906 17.8125 C 220.28125 18.066406 220.003906 17.8125 220.085938 17.394531 Z M 221.230469 21.277344 C 221.175781 21.445312 221.148438 21.277344 221.035156 21.277344 C 221.0625 21.136719 221.230469 21.164062 221.230469 21.277344 Z M 220.703125 33.597656 C 220.730469 33.484375 220.8125 33.539062 220.8125 33.597656 C 220.785156 33.707031 220.730469 33.652344 220.703125 33.597656 Z M 220.925781 60.078125 C 220.953125 59.9375 221.121094 59.96875 221.121094 60.078125 C 221.09375 60.21875 221.035156 60.050781 220.925781 60.078125 Z M 221.203125 46.53125 C 221.148438 46.53125 221.0625 46.53125 221.007812 46.53125 C 221.035156 46.445312 220.980469 46.445312 220.898438 46.417969 C 220.867188 46.222656 221.371094 46.277344 221.203125 46.53125 Z M 221.539062 53.652344 C 221.902344 53.960938 221.230469 53.988281 221.539062 53.652344 Z M 221.316406 42.5625 C 221.566406 42.621094 221.679688 42.757812 221.734375 42.984375 C 221.59375 42.84375 221.289062 42.871094 221.316406 42.5625 Z M 222.347656 17.394531 C 222.40625 17.449219 222.265625 17.535156 222.238281 17.503906 C 222.183594 17.476562 222.320312 17.394531 222.347656 17.394531 Z M 221.929688 47.230469 C 221.929688 46.949219 222.238281 46.894531 222.347656 47.035156 C 222.320312 47.230469 222.183594 47.285156 221.929688 47.230469 Z M 222.433594 67.089844 C 222.460938 67.007812 222.574219 67.007812 222.628906 66.980469 C 222.628906 67.089844 222.515625 67.0625 222.433594 67.089844 Z M 222.320312 48.765625 C 222.515625 48.765625 222.542969 48.90625 222.742188 48.875 C 222.796875 49.042969 222.183594 49.042969 222.320312 48.765625 Z M 222.851562 31.78125 C 222.796875 31.726562 222.9375 31.640625 222.964844 31.667969 C 223.019531 31.726562 222.878906 31.808594 222.851562 31.78125 Z M 223.046875 27.785156 C 223.074219 27.675781 223.160156 27.730469 223.160156 27.785156 C 223.132812 27.925781 223.046875 27.871094 223.046875 27.785156 Z M 223.046875 23.625 C 222.992188 23.566406 223.132812 23.484375 223.160156 23.511719 C 223.214844 23.566406 223.074219 23.652344 223.046875 23.625 Z M 223.886719 55.273438 C 223.886719 55.164062 223.96875 55.21875 223.996094 55.273438 C 223.96875 55.386719 223.886719 55.328125 223.886719 55.273438 Z M 224.78125 40.523438 C 224.722656 40.46875 224.863281 40.382812 224.890625 40.414062 C 224.949219 40.46875 224.808594 40.550781 224.78125 40.523438 Z M 224.667969 38.902344 C 224.75 38.597656 224.890625 38.988281 225.085938 38.902344 C 225.003906 39.238281 224.863281 38.988281 224.667969 38.902344 Z M 224.976562 19.65625 C 224.917969 19.601562 225.058594 19.515625 225.085938 19.546875 C 225.144531 19.601562 225.03125 19.683594 224.976562 19.65625 Z M 225.394531 39.910156 C 225.339844 39.855469 225.476562 39.796875 225.507812 39.796875 C 225.5625 39.855469 225.421875 39.9375 225.394531 39.910156 Z M 225.703125 41.445312 C 225.730469 41.304688 225.898438 41.335938 225.898438 41.445312 C 225.8125 41.503906 225.730469 41.558594 225.703125 41.445312 Z M 226.121094 31.472656 C 226.007812 31.472656 225.925781 31.472656 225.8125 31.472656 C 225.785156 31.304688 225.898438 31.277344 225.925781 31.167969 C 225.980469 31.167969 226.066406 31.167969 226.121094 31.167969 C 226.121094 31.277344 226.121094 31.363281 226.121094 31.472656 Z M 226.007812 19.238281 C 226.035156 19.125 226.289062 19.152344 226.316406 19.238281 C 226.398438 19.460938 225.953125 19.488281 226.007812 19.238281 Z M 226.316406 42.453125 C 226.539062 42.425781 226.652344 42.535156 226.625 42.757812 C 226.398438 42.785156 226.289062 42.675781 226.316406 42.453125 Z M 226.734375 21.191406 C 226.679688 21.136719 226.792969 21.054688 226.847656 21.082031 C 226.902344 21.136719 226.761719 21.222656 226.734375 21.191406 Z M 226.820312 43.179688 C 227.042969 43.121094 226.957031 43.375 227.125 43.375 C 227.097656 43.625 226.652344 43.457031 226.820312 43.179688 Z M 227.515625 47.453125 C 227.546875 47.339844 227.628906 47.394531 227.628906 47.453125 C 227.628906 47.5625 227.546875 47.507812 227.515625 47.453125 Z M 227.9375 20.773438 C 227.878906 20.773438 227.796875 20.773438 227.742188 20.773438 C 227.742188 20.71875 227.742188 20.632812 227.742188 20.578125 C 227.796875 20.578125 227.878906 20.578125 227.9375 20.578125 C 227.9375 20.632812 227.9375 20.71875 227.9375 20.773438 Z M 228.160156 20.242188 C 228.273438 20.242188 228.355469 20.242188 228.46875 20.242188 C 228.46875 20.382812 228.46875 20.523438 228.46875 20.664062 C 228.105469 20.773438 228.132812 20.523438 228.160156 20.242188 Z M 228.355469 28.09375 C 228.300781 28.066406 228.4375 27.980469 228.46875 27.980469 C 228.523438 28.039062 228.382812 28.121094 228.355469 28.09375 Z M 229.472656 61.699219 C 229.390625 61.753906 229.304688 61.8125 229.277344 61.699219 C 229.304688 61.558594 229.472656 61.585938 229.472656 61.699219 Z M 229.277344 23.734375 C 229.25 23.847656 229.164062 23.792969 229.164062 23.734375 C 229.195312 23.625 229.277344 23.679688 229.277344 23.734375 Z M 228.746094 53.261719 C 228.71875 53.039062 228.914062 53.066406 229.054688 53.066406 C 228.996094 53.179688 228.914062 53.261719 228.746094 53.261719 Z M 228.96875 40.023438 C 229.554688 40.160156 228.605469 40.496094 228.96875 40.023438 Z M 229.164062 36.753906 C 229.109375 36.695312 229.25 36.640625 229.277344 36.640625 C 229.332031 36.695312 229.195312 36.78125 229.164062 36.753906 Z M 229.25 65.050781 C 229.472656 65.023438 229.527344 65.136719 229.667969 65.164062 C 229.667969 65.441406 229.25 65.359375 229.25 65.050781 Z M 229.472656 53.375 C 229.472656 53.261719 229.585938 53.289062 229.667969 53.261719 C 229.667969 53.347656 229.554688 53.320312 229.472656 53.375 Z M 229.976562 45.914062 C 229.976562 45.832031 230.117188 45.832031 230.171875 45.804688 C 230.171875 45.914062 230.058594 45.886719 229.976562 45.914062 Z M 231.820312 29.015625 C 232.042969 28.988281 232.015625 29.15625 232.015625 29.324219 C 231.929688 29.292969 231.929688 29.210938 231.820312 29.210938 C 231.820312 29.15625 231.820312 29.070312 231.820312 29.015625 Z M 231.734375 25.046875 C 231.707031 25.160156 231.625 25.105469 231.625 25.046875 C 231.625 24.9375 231.707031 24.992188 231.734375 25.046875 Z M 230.675781 43.261719 C 230.644531 43.402344 230.476562 43.375 230.476562 43.261719 C 230.535156 43.121094 230.589844 43.289062 230.675781 43.261719 Z M 230.476562 62.507812 C 230.507812 62.398438 230.589844 62.453125 230.589844 62.507812 C 230.5625 62.621094 230.476562 62.566406 230.476562 62.507812 Z M 230.476562 48.066406 C 230.449219 47.84375 230.644531 47.871094 230.785156 47.871094 C 230.730469 47.984375 230.644531 48.066406 230.476562 48.066406 Z M 230.703125 44.992188 C 231.148438 45.078125 230.617188 45.609375 230.703125 44.992188 Z M 231.203125 38.707031 C 231.203125 38.765625 231.203125 38.847656 231.203125 38.902344 C 230.703125 38.988281 231.007812 38.34375 231.203125 38.707031 Z M 231.289062 62.425781 C 231.203125 62.480469 231.121094 62.539062 231.09375 62.425781 C 231.121094 62.285156 231.316406 62.3125 231.289062 62.425781 Z M 231.820312 39.796875 C 231.457031 39.460938 231.566406 39.015625 231.398438 38.375 C 232.070312 38.289062 232.238281 39.492188 231.820312 39.796875 Z M 231.707031 50.21875 C 231.707031 50.105469 231.820312 50.132812 231.902344 50.105469 C 231.902344 50.191406 231.792969 50.160156 231.707031 50.21875 Z M 232.015625 56.417969 C 231.960938 56.363281 232.097656 56.28125 232.125 56.308594 C 232.183594 56.363281 232.042969 56.449219 232.015625 56.417969 Z M 233.328125 43.679688 C 233.273438 43.679688 233.1875 43.679688 233.132812 43.679688 C 233.132812 43.625 233.132812 43.542969 233.132812 43.484375 C 233.1875 43.484375 233.273438 43.484375 233.328125 43.484375 C 233.328125 43.542969 233.328125 43.625 233.328125 43.679688 Z M 233.746094 37.480469 C 233.691406 37.421875 233.832031 37.339844 233.859375 37.367188 C 233.914062 37.421875 233.773438 37.507812 233.746094 37.480469 Z M 233.941406 53.457031 C 233.886719 53.402344 234.027344 53.320312 234.054688 53.347656 C 234.109375 53.402344 233.96875 53.484375 233.941406 53.457031 Z M 234.136719 42.144531 C 234.109375 42.285156 234.054688 42.144531 233.941406 42.144531 C 233.96875 42.03125 234.164062 42.0625 234.136719 42.144531 Z M 234.164062 26.667969 C 234.195312 26.527344 234.363281 26.558594 234.363281 26.667969 C 234.304688 26.835938 234.277344 26.667969 234.164062 26.667969 Z M 234.976562 36.445312 C 235.003906 36.335938 235.171875 36.363281 235.171875 36.445312 C 235.085938 36.5 235.003906 36.558594 234.976562 36.445312 Z M 235.589844 50.300781 C 235.589844 50.191406 235.675781 50.246094 235.703125 50.300781 C 235.675781 50.414062 235.589844 50.359375 235.589844 50.300781 Z M 235.980469 36.863281 C 236.007812 36.726562 236.175781 36.753906 236.175781 36.863281 C 236.148438 37.003906 236.09375 36.835938 235.980469 36.863281 Z M 237.210938 36.25 C 236.929688 35.941406 237.519531 36.53125 237.210938 36.25 Z M 237.210938 36.25 " fill-opacity="1" fill-rule="nonzero"/></g><g clip-path="url(#e6a7380b52)"><g transform="matrix(1, 0, 0, 1, 117, 61)"><g clip-path="url(#a4c556114d)"><g clip-path="url(#ab4b456b9e)"><g mask="url(#6acb5482a8)"><g transform="matrix(1, 0, 0, 1, 0, -0.000000000000007105)"><g clip-path="url(#50d9dd6fdc)"><g clip-path="url(#78258f06a6)"><path fill="url(#c325d2fa32)" d="M 0.691406 0.929688 L 0.691406 114.039062 L 177.46875 114.039062 L 177.46875 0.929688 Z M 0.691406 0.929688 " fill-rule="nonzero"/></g></g></g></g></g></g></g></g></svg>